<?xml version="1.0" encoding="utf-8"?>
<!-- Generator: Adobe Illustrator 25.4.1, SVG Export Plug-In . SVG Version: 6.00 Build 0)  -->
<svg version="1.1" id="レイヤー_1" xmlns="http://www.w3.org/2000/svg" xmlns:xlink="http://www.w3.org/1999/xlink" x="0px"
	 y="0px" viewBox="0 0 198 137" style="enable-background:new 0 0 198 137;" xml:space="preserve">
<style type="text/css">
	.st0{opacity:0.18;}
	.st1{fill:#FFFFFF;}
</style>
<g class="st0">
	<path class="st1" d="M31.3,66.3l-10,2l0.9,15.2l-7,1.7l-0.6-16.9L5,68.2l-1.4-14l26.4-3L31.3,66.3z M40.4,61l-0.1,2.2
		c0.8-1.1,1.8-1.6,2.9-1.7c0.4,0,0.7,0,1,0c2.4,0.1,4,1.2,4.7,3.2c0.3,0.8,0.4,1.8,0.3,3l-4.1,1c0-0.2,0-0.5,0-0.7
		c0.1-1.5-0.4-2.3-1.4-2.3c-1.2,0-1.8,0.7-1.9,2c0.3,7.7,0.5,13,0.6,15.8l-10.1,1l0.7-24L40.4,61z M63.2,76.8l-8.5,3.1
		c0.1,2.4,0.6,3.6,1.5,3.6c0.7,0,1.6-0.7,2.7-2.1c0.5,0.5,1.4,1.5,2.7,2.8c-0.8,0.5-1.5,0.9-2.1,1.3c-1.6,0.9-2.7,1.4-3.5,1.5
		c-0.6,0.1-1.2,0.1-1.7,0.1c-3,0-5.2-1.3-6.5-3.9c-0.9-1.7-1.3-3.9-1.3-6.5c0-0.7,0-1.2,0.1-1.7c0.2-2.3,0.5-4.3,1.1-6
		c1.4-4.1,3.7-6.3,7-6.6c3.9-0.3,6.5,2,7.8,6.9C63,71.4,63.3,73.8,63.2,76.8z M57.7,75.9c0-0.6-0.1-1.1-0.3-1.5
		c-0.4-1.1-1.2-1.7-2.2-2c-0.1,0-0.3-0.1-0.4-0.1c-0.6,0-0.9,0.5-0.9,1.5c0,0.8,0.2,1.9,0.6,3.1L57.7,75.9z M66.5,61.8l-0.1,2.6
		c2.5-2.7,4.7-4.1,6.6-4.1c1.7,0,3.1,1.1,4.2,3.4c0.4,0.9,0.8,2,1.1,3.4l1.8,16.5L72.7,84L72,77c-0.1-0.8-0.2-1.6-0.4-2.3
		c-0.3-1-0.8-1.5-1.3-1.6c-0.7,0-1,0.5-1,1.5c0,0.3,0,0.5,0.1,0.8l0.8,7.8L64.8,84l-1.3-23.2L66.5,61.8z M83.3,64.3
		c1.6-1.5,3.4-2.1,5.4-1.9c1.3,0.1,2.7,0.6,4.1,1.4l-1.5-5l8.5-0.2l-3.6,25.5L93,83.3l0.3-1.6c-2.1,2-4.3,2.9-6.7,2.6
		c-0.4,0-0.9-0.1-1.3-0.3c-1.8-0.6-3.2-2.2-4.3-4.8c-1-2.4-1.3-5-1-7.5c0.1-0.8,0.2-1.5,0.4-2.2C81,67.3,82,65.6,83.3,64.3z
		 M89.7,79.2c0.8,0.1,1.7-0.2,2.7-1l0.4-4.7c-0.4-0.3-0.9-0.4-1.5-0.5c-0.9-0.1-1.7,0.1-2.4,0.4c-0.8,0.5-1.2,1.1-1.3,2.1
		c0,0.4,0,1,0.1,1.5C88,78.4,88.7,79.1,89.7,79.2z M132.3,65.3l-7.8,17.9l-6.2-7.5l-10,11.2l-6.5-31.8l6.4-2.5l6.1,12.7l5.3-4.4
		l4.4,7.8l0.9-3.9L132.3,65.3z M148.6,76.1c0,1.1-0.3,2.4-1,4c-0.7,1.6-1.7,3-2.8,4c-1.3,1.2-2.7,1.9-4.1,1.9c-2.5,0-4.7-1-6.4-2.9
		c-2-2.2-3-5.2-3-9.1c0-3.4,1.4-6.1,4.2-8c1.2-0.8,2.6-1.4,4.2-1.9c3.4,0,5.8,1.6,7.4,4.9C148.1,71,148.6,73.4,148.6,76.1z
		 M143.4,77.9c-0.3-0.3-0.7-0.4-1.1-0.4c-0.7,0-1.3,0.3-1.9,0.9c-0.4,0.5-0.6,1-0.6,1.6c0,0.6,0.2,1,0.6,1.4
		c0.3,0.3,0.7,0.4,1.1,0.4c0.7,0,1.3-0.3,1.8-0.9c0.4-0.5,0.6-1,0.6-1.6C144,78.7,143.8,78.2,143.4,77.9z M156.5,59.8l0.1,2.3
		c0.7-1.2,1.7-1.9,2.8-2c0.4-0.1,0.7-0.1,1.1-0.1c2.5-0.1,4.3,0.8,5.2,2.8c0.4,0.8,0.6,1.9,0.7,3.1l-4.1,1.5c0-0.2,0-0.5,0-0.8
		c-0.1-1.6-0.6-2.3-1.7-2.2c-1.2,0.1-1.8,0.9-1.7,2.2c1.1,7.9,1.9,13.3,2.3,16.3l-10.3,2.1l-1.9-24.9L156.5,59.8z M166.7,65.3
		c1.4-1.5,3.1-2.2,5-2.1c1.2,0.1,2.5,0.4,3.9,1.1l-1.7-4.6l7.9-0.7l-2,24.1l-3.1-0.7l0.2-1.5c-1.9,2-3.9,2.9-6.1,2.8
		c-0.4,0-0.8-0.1-1.3-0.2c-1.7-0.4-3.2-1.9-4.3-4.3c-1-2.2-1.5-4.6-1.4-7c0-0.8,0.1-1.5,0.3-2.1C164.7,68.3,165.5,66.6,166.7,65.3z
		 M173.5,79c0.8,0,1.6-0.3,2.5-1.1l0.1-4.5c-0.4-0.2-0.9-0.4-1.4-0.4c-0.8,0-1.6,0.1-2.2,0.5c-0.7,0.5-1.1,1.1-1.1,2
		c0,0.4,0.1,0.9,0.2,1.4C171.9,78.3,172.6,78.9,173.5,79z M64.8,116.3l-13.1,0.6l0.8-7.5l-2.4-0.5l-1,3.4l-5.9-1.8l5.8-19.4l11,1.7
		L64.8,116.3z M53.3,100.5l-0.6-0.2l-1.6,5.2l1.7,0.4L53.3,100.5z M85.3,101.3l-5.7,13l-4.5-5.5l-7.3,8.1l-4.8-23.2l4.7-1.8l4.4,9.2
		l3.9-3.2l3.2,5.6l0.7-2.9L85.3,101.3z M105.8,116.3l-13.1,0.6l0.8-7.5l-2.4-0.5l-1,3.4l-5.9-1.8l5.8-19.4l11,1.7L105.8,116.3z
		 M94.3,100.5l-0.6-0.2l-1.6,5.2l1.7,0.4L94.3,100.5z M125.3,101.8c0,3.2-1.4,5.6-4.3,7.2c-1.2,0.7-2.6,1.1-4.3,1.5l1.7,3.7
		l-3.5,1.1c-0.7-1.5-1.5-2.9-2.2-4.4c0.1,0.9,0.4,2.5,0.8,5l-6.2,0.3l-1.3-25.8l7.1,1.5c2.4,0.6,4.4,1.3,6.1,2.2
		C123.2,96.1,125.3,98.7,125.3,101.8z M117.5,105.2c-0.1-1.6-1.6-2.4-4.3-2.4c-0.5,0-1,0-1.4,0.1l0.7,4.8
		C116,107.4,117.7,106.6,117.5,105.2z M142.3,103c-0.6,4.7-2.3,8-5,10c-1.8,1.3-3.8,2-6.2,2c-0.5,0-1,0-1.4-0.1l-3.9-0.7l1.4-22.4
		l2.7-0.4c0.6-0.1,1.2-0.1,2-0.1c2.6,0,4.8,0.5,6.6,1.5c2.6,1.6,3.9,4.2,3.9,7.8C142.4,101.3,142.4,102.1,142.3,103z M134.6,108.6
		c0.3-0.5,0.4-0.9,0.4-1.3c0-1.3-1.4-2.1-4.1-2.4l-0.8,4.8c0.6,0.5,1.1,0.7,1.8,0.7C133,110.4,133.9,109.8,134.6,108.6z M76.1,2.7
		l-3.6,23.1l-6.2-1.1c-2.2-0.4-4.4-0.6-6.5-0.6c-7,0-10.7,2.4-11,7.1c-0.2,4.3,2,7.2,6.6,8.9c2,0.7,4.4,1.1,7.1,1.2l0.7-4.4
		l-8.4,1.6l-1.7-11l19.1,1.8l0.9,20.2L61.8,50c-4.6,0-8.5-0.9-11.8-2.6c-7.1-3.9-10.7-11.2-10.7-22c0-9,3-15.5,9-19.5
		C52.7,3,58.4,1.6,65.5,1.6C69.2,1.6,72.7,2,76.1,2.7z M116.9,49.8l-25.8,1.1l1.6-14L87.9,36L86,42.2L74.3,39L85.6,2.8L107.3,6
		L116.9,49.8z M94.3,20.3L93.1,20L90,29.7l3.3,0.8L94.3,20.3z M146.3,47.2l-25.7,1.2l-4.1-42.2l22.9-3.1l-1.6,36.6l7.5-1.8
		L146.3,47.2z"/>
</g>
</svg>
