<?xml version="1.0" encoding="utf-8"?>
<!-- Generator: Adobe Illustrator 25.4.1, SVG Export Plug-In . SVG Version: 6.00 Build 0)  -->
<svg version="1.1" id="レイヤー_1" xmlns="http://www.w3.org/2000/svg" xmlns:xlink="http://www.w3.org/1999/xlink" x="0px"
	 y="0px" viewBox="0 0 181 47" style="enable-background:new 0 0 181 47;" xml:space="preserve">
<style type="text/css">
	.st0{fill:#FFFFFF;}
</style>
<g>
	<g>
		<g>
			<path class="st0" d="M114.4,27.3L114.4,27.3l-1.4,6.7h2.8L114.4,27.3z M119.5,39c0.2,0.9-1.3,1.5-1.9,1.5c-0.4,0-0.6-0.1-0.7-0.6
				l-0.7-3.3h-2.9c-0.6,0-1,0.2-1.1,0.7l-0.4,1.8c-0.2,1.1-1.6,1.5-2.4,1.5c-0.6,0-0.6-0.2-0.5-0.7l4.2-17.7h2.3L119.5,39z"/>
			<path class="st0" d="M102.5,22h-2.8v18.4h6.7c1.1,0,1.6-1.5,1.6-2c0-0.5-0.2-0.6-0.7-0.6h-3.8c-0.6,0-1-0.2-1-0.7V22z"/>
			<path class="st0" d="M141,22c0.5,0,0.7,0.1,0.7,0.6c0,0.5-0.4,1.9-1.5,1.9h-3.5c-0.6,0-1,0.2-1,0.7v4.4h4.8v2.5h-3.8
				c-0.6,0-1,0.2-1,0.7v5h5.3c0.5,0,0.7,0.1,0.7,0.6c0,0.5-0.5,2-1.6,2H133V22H141z"/>
			<path class="st0" d="M148.7,38.9c0,1.1-1.6,1.6-2.1,1.6c-0.6,0-0.7-0.2-0.7-0.7V24.5h-3.2V22h9.2c0.5,0,0.7,0.1,0.7,0.6
				c0,0.5-0.5,1.9-1.6,1.9h-1.3c-0.6,0-1,0.2-1,0.7V38.9z"/>
			<path class="st0" d="M123.9,29.3L123.9,29.3l-0.1,9.5c0,1.1-1.6,1.6-2.1,1.6c-0.5,0-0.7-0.2-0.7-0.7V22h2.7l4.2,11.1h0.1V22h2.8
				v16.9c0,1.1-1.6,1.6-2.1,1.6c-0.3,0-0.5-0.1-0.6-0.3L123.9,29.3z"/>
			<path class="st0" d="M89.2,22h4.2c1.5,0,2.6,0.3,3.6,1.3c0.9,1,1.2,2.1,1.2,4.3c0,1.6-0.1,2.7-0.8,3.7c-0.8,1.2-2,1.9-4,1.9H93
				c-0.6,0-1,0.2-1,0.7v5c0,1.1-1.6,1.6-2.1,1.6c-0.6,0-0.7-0.2-0.7-0.7V22z M92,30.7h1.3c2.3,0,2.3-1.3,2.3-3.1
				c0-1.7,0-3.2-2.2-3.2H93c-0.6,0-1,0.2-1,0.7V30.7z"/>
		</g>
		<g>
			<path class="st0" d="M31.2,11.5c-4.1,0-7.6-0.3-11.5-1.2c-4-0.9-7-2.6-11.5-2.6c-4.5,0-8.7,1.6-8.2,2.7c0.5,1.1,2.1,3,4.3,4.4
				c2.1,1.3,4.9,2.5,6.1,2.4c1.3-0.1,2.2-0.5,0.8-0.9c-2.4-0.8-5.2-1.9-6.5-2.6c-1.2-0.7-2.2-1.6-1.2-2.3c1-0.7,2.6-1.3,5-1.5
				c2.4-0.2,3.6-0.2,7,1.1c3.4,1.3,8.3,2.8,14.4,2.9c6.1,0.1,13.5-0.4,16.6-1.5c3.1-1.1,3.7-2.1,3.6-2.8C50,8.9,49.6,8.8,47.4,8
				C45.1,7.3,41,6.2,36.8,5.6c-4.2-0.5-7.7-0.8-9.1-0.5c-1.4,0.3-1.5,0.8-2.2,2.3c-0.7,1.4-3.1,7.1-3.9,10.8
				c-0.8,3.8-1.3,8.5-0.3,13.6c0.9,5.2,2.6,8.8,4.6,10.8c1.9,2,4.7,3.2,6.2,2.6c1.5-0.6,2.1-2.5,1.8-2.8c-0.3-0.3-0.6,0-1.4,0.3
				c-1.6,0.7-2.9,1-4.9-0.8c-2-1.9-4.1-6.9-4.5-13.7C22.6,21.5,25,14.7,25.7,13c0.7-1.7,1.5-3.3,2.1-4c0.8-0.9,1.8-1.3,4.2-1.3
				c2.4,0.1,6,0.4,8.5,0.6c2.2,0.2,6.2,0.5,6.4,1.2c0.1,0.7-0.8,0.9-3.1,1.1C41.6,11,35.5,11.4,31.2,11.5z"/>
			<path class="st0" d="M32.3,30.8c0.3,2,1,4.3,2.6,4.7c1.8,0.4,2.6,0.1,3.3-1.1c1-1.6,1.8-7.8,2.6-10.5c0.2-0.7,0.2-0.6,0.5-0.2
				c1.4,2.3,2.7,4.8,3.6,6.5c0.9,1.7,2.4,4.8,2.8,6.4c0.3,1.3,0.1,4.2-0.2,5.9c-0.3,1.7-0.5,2.5,0.3,3.6c0.7,1.1,1.3,0.9,1.9,0.2
				c0.5-0.7,0.9-1.6,1.3-4.8c0.4-3.2,0.9-9.1,1.6-13.7c0.7-4.6,1.7-9.7,2.5-12.6c0.8-2.6,1.8-4.8,2-5.8c0.1-1,0.1-1.6,0.2-2.2
				c0.1-0.5-0.3-0.4-0.7,0.4c-2.1,4-3.5,7.3-4.3,10.3c-0.8,3-2.6,11.2-3.1,15.3c-0.1,0.4-0.3,0.8-0.6,0.1c-1.5-3-2.8-6-3.8-8.4
				c-1-2.3-2.3-4.8-3-5.4c-0.7-0.7-1.6-0.7-1.8-0.2c-0.8,1.7-1.7,7.8-2.7,11.2c-0.6,1.9-1.1,2.7-1.7,2.7c-0.6-0.1-0.8-0.9-0.9-2.2
				c-0.3-2.9,0.6-8,0.4-9.6c-0.2-1.6-1.1-2-2.1-2.3c-1.1-0.3-2-0.5-2.6-0.3c-0.6,0.2-0.5,0.4,0.3,0.9c0.9,0.5,2.1,1.3,2.2,2.4
				C32.8,24.9,32.1,29.3,32.3,30.8z"/>
			<path class="st0" d="M57,30.2c-0.2,4.7,0.2,6.2,1.3,8.4c0.7,1.5,1.3,1.8,1.8,1.6c0.5-0.2,0.5-0.5,0.3-1.6
				c-0.6-2.4-0.9-4.8-0.7-7.3c0.2-2,0.9-3.4,1.3-4.5c0.4-1.1,0.3-2.3-0.1-2.9c-0.4-0.6-1.8-1.1-2.5-1.5c-0.7-0.5-1.4-0.1-0.9,0.4
				c0.5,0.6,0.7,1.4,0.5,2.3C57.6,26.1,57.1,28.4,57,30.2z"/>
			<path class="st0" d="M66,27.6c-0.2,3.1-1.3,10.7-1.2,11.4c0.1,0.7,0.6,1,1,1.3c0.4,0.3,0.7-0.1,0.9-0.7
				c0.8-2.4,1.8-10.7,2.1-12.8c0-0.3,0.2-0.5,0.6-0.1c2.2,2,4.3,5.8,5.6,7.9c1.1,1.8,2,3.1,2.1,5.3c0,2.1-0.3,5.2-0.5,6.1
				c-0.1,0.9,0.4,0.6,0.8,0.1c0.4-0.5,1.2-1,1.9-1.3c0.7-0.3,0.9-1.5,1.1-4.2c0.3-4.2,1.1-11.2,1.9-15.5c0.7-4.3,1.9-9.6,2.7-11.7
				c0.8-2.1,1.2-3.2,1.4-4.1c0.1-0.9,0.1-1.2,0.1-1.7c0.1-0.6-0.1-0.8-0.6,0c-2.3,4-4,9.3-4.8,12.1c-0.8,2.8-2.3,9.2-2.7,11.1
				c-0.4,1.8-0.6,3.2-0.7,3.8c-0.1,0.7-0.2,0.8-0.4,0.4c-1.7-3.3-4.3-7.1-5.4-8.5c-1.2-1.4-2.2-2.3-2.9-3.1c-1-1-1.4-1.4-2.3-1.5
				c-0.9-0.1-1.4,0.2-1.3,1c0.2,1.1,0.6,1.7,0.6,2.4C66.1,26,66.1,26.6,66,27.6z"/>
		</g>
	</g>
	<path class="st0" d="M159.3,15.1c0.4,2.6,1.8,5.3,3.3,6.2c1.6,0.9,2.9-0.2,2.8-1.3c0-0.9-0.4-1.5-1.9-3.4c-1.5-1.9-2.5-4-1.7-6.7
		c0.8-2.7,2.9-5.3,6.9-5.4c4.3-0.2,7.3,3.5,8.2,6.6c0.9,3.1,0.2,6.1-2.9,7.3c-2.6,1.1-5,0-6.3-1.3c-1.3-1.3-1.8-3-1.9-4.5
		c-0.1-1.3-1.7-1.1-1.4,0.4c0.7,3.2,2.4,4.9,4.6,5.9c2.2,1,5.3,0.8,7.2-1c2-2,2.4-4.6,1.5-7.6c-0.9-3-4.1-6.6-8.8-6.5
		c-3.6,0-6.3,1.5-8.1,3.8C159.3,9.8,158.9,12.8,159.3,15.1z"/>
	<path class="st0" d="M179.6,19.2c0.9-1.8,1.4-3.8,1.4-5.9c0-7.2-5.9-13.1-13.1-13.1c-7.2,0-13.1,5.9-13.1,13.1
		c0,7.2,5.7,13.1,13,13.1c3.4,0,7.2-1.5,8.8-5c1.7-3.7-0.1-7.3-1.5-9c-1.4-1.6-3.7-3.2-5-3.1c-1.4,0.1-1.9,1-1.5,2.2
		c0.4,1.1,2.5,1.6,4.4,3.7c2,2.1,2,4.8,1.2,6.6c-0.8,1.9-2.9,3.7-6.1,3.7c-7,0-11.9-5.2-11.9-12.2c0-6.2,5.1-11.6,12-11.6
		c6.8,0,12,5.1,12,11.6c0,2-0.5,3.9-1.4,5.5c-0.1,0.3-0.1,0.5,0.1,0.6C179.1,19.5,179.4,19.5,179.6,19.2z"/>
</g>
</svg>
