<?xml version="1.0" encoding="utf-8"?>
<!-- Generator: Adobe Illustrator 25.4.1, SVG Export Plug-In . SVG Version: 6.00 Build 0)  -->
<svg version="1.1" id="レイヤー_1" xmlns="http://www.w3.org/2000/svg" xmlns:xlink="http://www.w3.org/1999/xlink" x="0px"
	 y="0px" viewBox="0 0 175 90" style="enable-background:new 0 0 175 90;" xml:space="preserve">
<style type="text/css">
	.st0{fill:#FFFFFF;}
</style>
<g>
	<g>
		<g>
			<path class="st0" d="M84.1,53.3c0,1.2-1,2.2-2.3,2.2c-1.2-0.1-2-1.1-2-2.2V6.3c0-1.2,0.9-2.2,2-2.2C83.1,4,84.1,5,84.1,6.2v22.4
				h13.4V13.4C97.5,6.6,92,1,85.1,1h-6.4c-6.8,0-12.4,5.5-12.4,12.3v32.8c0,6.8,5.5,12.3,12.4,12.3h6.4c6.8,0,12.4-5.5,12.4-12.3
				V30.9H80.4l0,0c2.2,0.8,3.7,3,3.7,5.3V53.3z"/>
		</g>
		<g>
			<g>
				<rect x="139.6" y="0.3" class="st0" width="13.4" height="58.2"/>
			</g>
			<path class="st0" d="M158.7,16.8V5.7c0-2.4-1.5-4.5-3.7-5.3v0h8.8c4.6,0,8.3,3.7,8.3,8.3v6.5v4.6c0,4.6-3.7,8.3-8.3,8.3H155l0,0
				c2.2-0.8,3.7-3,3.7-5.3V10.2"/>
		</g>
		<g>
			<g>
				<rect x="102.3" y="0.3" class="st0" width="13.4" height="58.2"/>
			</g>
			<path class="st0" d="M121.4,16.8V5.7c0-2.4-1.5-4.5-3.7-5.3v0h8.8c4.6,0,8.3,3.7,8.3,8.3v6.5l0,4.6c0,4.6-3.7,8.3-8.3,8.3h-8.8
				l0,0c2.2-0.8,3.7-3,3.7-5.3V10.2"/>
			<path class="st0" d="M134.8,45.8L134.8,45.8v-6.6c0-4.6-3.7-8.3-8.3-8.3h-8.8c2.2,0.8,3.7,3,3.7,5.3v4.6v5v12.7h13.4V45.8z"/>
		</g>
	</g>
</g>
<g>
	<path class="st0" d="M4,23.9h2.6l3.9,11.1H8l-0.7-2.3H3.2l-0.8,2.3H0L4,23.9z M3.8,30.8h2.8l-1.4-4.3L3.8,30.8z"/>
	<path class="st0" d="M20.2,25.1c0.3,0.5,0.5,1,0.5,1.7c0,0.7-0.2,1.2-0.5,1.6c-0.2,0.2-0.5,0.4-0.8,0.6c0.6,0.2,1,0.5,1.3,1
		c0.3,0.4,0.4,1,0.4,1.6c0,0.7-0.2,1.2-0.5,1.8c-0.2,0.3-0.5,0.6-0.8,0.9c-0.4,0.3-0.8,0.5-1.3,0.6c-0.5,0.1-1,0.2-1.6,0.2h-5V23.9
		h5.4C18.7,23.9,19.6,24.3,20.2,25.1z M14.2,25.8v2.4h2.7c0.5,0,0.9-0.1,1.2-0.3s0.5-0.5,0.5-1c0-0.5-0.2-0.9-0.6-1
		c-0.3-0.1-0.8-0.2-1.3-0.2H14.2z M14.2,30.1V33h2.7c0.5,0,0.9-0.1,1.1-0.2c0.5-0.2,0.7-0.7,0.7-1.4c0-0.6-0.2-1-0.7-1.2
		c-0.3-0.1-0.6-0.2-1.1-0.2H14.2z"/>
	<path class="st0" d="M31.6,34c-0.8,0.9-2,1.3-3.6,1.3c-1.6,0-2.8-0.4-3.6-1.3c-1.1-1.1-1.7-2.6-1.7-4.6c0-2,0.6-3.5,1.7-4.6
		c0.8-0.9,2-1.3,3.6-1.3c1.6,0,2.8,0.4,3.6,1.3c1.1,1,1.7,2.5,1.7,4.6C33.2,31.4,32.7,32.9,31.6,34z M30.1,32.3
		c0.5-0.7,0.8-1.6,0.8-2.9c0-1.2-0.3-2.2-0.8-2.9c-0.5-0.7-1.3-1-2.2-1c-0.9,0-1.6,0.3-2.2,1s-0.8,1.6-0.8,2.9
		c0,1.2,0.3,2.2,0.8,2.9c0.5,0.7,1.3,1,2.2,1C28.9,33.3,29.6,33,30.1,32.3z"/>
	<path class="st0" d="M35,23.9h2.4v6.8c0,0.8,0.1,1.3,0.3,1.7c0.3,0.6,0.9,0.9,1.8,0.9c0.9,0,1.5-0.3,1.8-0.9
		c0.2-0.3,0.3-0.9,0.3-1.7v-6.8h2.4v6.8c0,1.2-0.2,2.1-0.5,2.7c-0.7,1.2-2,1.8-3.9,1.8c-1.9,0-3.2-0.6-3.9-1.8
		c-0.4-0.7-0.5-1.6-0.5-2.7V23.9z"/>
	<path class="st0" d="M54.2,23.9v2h-3.3v9.1h-2.3v-9.1h-3.3v-2H54.2z"/>
</g>
<g>
	<path class="st0" d="M71.1,69.6c0,0.1,0.1,0.2,0.1,0.5c0,1-0.7,1.9-2.5,1.9c-0.3,0-0.5,0-0.7,0c-0.3,0.1-0.4,0.2-0.4,0.3
		c0,0.3,0.5,0.3,0.9,0.4c1.6,0.1,2.3,0.2,2.7,0.6c0.2,0.2,0.4,0.6,0.4,1c0,1.1-1.2,1.7-3.1,1.7c-1.4,0-2.6-0.3-2.6-1.3
		c0-0.9,0.7-1,1-1c-0.3-0.1-0.8-0.3-0.8-0.8c0-0.6,0.6-0.9,0.9-1.2c-0.3-0.2-0.8-0.6-0.8-1.5c0-1.3,1.2-2,2.6-2
		c1.1,0,1.6,0.4,1.8,0.6c0.5-0.5,0.6-0.6,1.3-0.6v1.1C71.5,69.2,71.4,69.2,71.1,69.6z M68.7,69.3c-0.8,0-1.2,0.4-1.2,0.9
		c0,0.7,0.8,0.7,1.1,0.7c0.3,0,1.2,0,1.2-0.8C69.8,69.5,69.3,69.3,68.7,69.3z M69.1,73.8c-0.1,0-0.8,0-1,0c-0.4,0.1-0.6,0.2-0.6,0.6
		c0,0.2,0,0.5,1.3,0.5c1.1,0,1.2-0.2,1.2-0.5C70,74,69.5,73.9,69.1,73.8z"/>
	<path class="st0" d="M73,67.6v-1.5h1.5v1.5H73z M73,74.4v-6.1h1.5v6.1H73z"/>
	<path class="st0" d="M79.1,69.6c-1.1,0-1.6,0.7-1.6,1.5v3.3H76v-6.1h1.5v0.4l-0.1,0.9c0.6-1.1,1-1.5,2.3-1.5v1.5H79.1z"/>
	<path class="st0" d="M80.7,74.4v-8.3h1.5v8.3H80.7z"/>
	<path class="st0" d="M86.2,74.6c-0.4,0-1.4-0.1-2-0.7c-0.4-0.4-0.5-0.7-0.6-1.4h1.5c0,0.3,0.2,1,1.1,1c0.1,0,0.9,0,0.9-0.6
		c0-0.4-0.3-0.6-1.3-0.9c-1.3-0.5-2.1-0.8-2.1-1.9c0-1,1-1.9,2.4-1.9c0.5,0,1.2,0.1,1.8,0.6c0.4,0.4,0.5,0.7,0.6,1.4H87
		c0-0.4-0.2-0.8-0.9-0.8c-0.6,0-0.8,0.3-0.8,0.6c0,0.3,0.3,0.4,0.8,0.6c1.5,0.6,1.6,0.6,1.9,0.9c0.4,0.3,0.7,0.8,0.7,1.3
		C88.6,73.9,87.5,74.6,86.2,74.6z"/>
	<path class="st0" d="M97,69.6c-1.1,0-1.6,0.7-1.6,1.5v3.3h-1.5v-6.1h1.5v0.4l-0.1,0.9c0.6-1.1,1-1.5,2.3-1.5v1.5H97z"/>
	<path class="st0" d="M99.7,71.8c0.1,0.3,0.3,1.6,1.5,1.6c0.3,0,0.9-0.1,1.1-0.7h1.5c-0.2,0.5-0.7,2-2.7,2c-1.7,0-2.9-1.1-2.9-3.2
		c0-2.2,1.4-3.2,2.9-3.2c1,0,1.8,0.5,2.3,1.2c0.5,0.8,0.6,1.6,0.6,2.5H99.7z M101.1,69.4c-1.1,0-1.3,1.1-1.4,1.5h2.6
		C102.3,69.9,101.8,69.4,101.1,69.4z"/>
	<path class="st0" d="M107.4,74.6c-0.4,0-1.4-0.1-2-0.7c-0.4-0.4-0.5-0.7-0.6-1.4h1.5c0,0.3,0.2,1,1.1,1c0.1,0,0.9,0,0.9-0.6
		c0-0.4-0.3-0.6-1.3-0.9c-1.3-0.5-2.1-0.8-2.1-1.9c0-1,1-1.9,2.4-1.9c0.5,0,1.2,0.1,1.8,0.6c0.4,0.4,0.5,0.7,0.6,1.4h-1.5
		c0-0.4-0.2-0.8-0.9-0.8c-0.6,0-0.8,0.3-0.8,0.6c0,0.3,0.3,0.4,0.8,0.6c1.5,0.6,1.6,0.6,1.9,0.9c0.4,0.3,0.7,0.8,0.7,1.3
		C109.9,73.9,108.8,74.6,107.4,74.6z"/>
	<path class="st0" d="M112.4,71.8c0.1,0.3,0.3,1.6,1.5,1.6c0.3,0,0.9-0.1,1.1-0.7h1.5c-0.2,0.5-0.7,2-2.7,2c-1.7,0-2.9-1.1-2.9-3.2
		c0-2.2,1.4-3.2,2.9-3.2c1,0,1.8,0.5,2.3,1.2c0.5,0.8,0.6,1.6,0.6,2.5H112.4z M113.7,69.4c-1.1,0-1.3,1.1-1.4,1.5h2.6
		C114.9,69.9,114.5,69.4,113.7,69.4z"/>
	<path class="st0" d="M121.8,74.4c-0.2-0.2-0.2-0.6-0.2-0.9c-0.2,0.3-0.5,1-2,1c-1.7,0-2.2-1-2.2-1.8c0-1.4,1.3-1.8,2.6-2
		c0.7-0.1,1.4-0.2,1.4-0.8c0-0.5-0.5-0.6-1-0.6c-0.1,0-0.8,0-1.2,0.4c-0.2,0.2-0.2,0.3-0.2,0.6h-1.4c0.1-1.9,1.8-2.2,2.6-2.2
		c1.4,0,2.7,0.6,2.7,2.2v3.4c0,0.2,0,0.5,0.3,0.7H121.8z M120.5,71.7c-0.6,0.1-1.4,0.3-1.4,1c0,0.4,0.4,0.8,1,0.8
		c0.6,0,1.5-0.4,1.5-1.2v-0.7l0.1-0.4C121.4,71.5,121.1,71.6,120.5,71.7z"/>
	<path class="st0" d="M127.5,69.6c-1.1,0-1.6,0.7-1.6,1.5v3.3h-1.5v-6.1h1.5v0.4l-0.1,0.9c0.6-1.1,1-1.5,2.3-1.5v1.5H127.5z"/>
	<path class="st0" d="M131.6,74.6c-2.1,0-2.9-1.5-2.9-3.2c0-2.4,1.6-3.3,3.1-3.3c0.8,0,1.5,0.2,2,0.8c0.5,0.5,0.6,0.9,0.7,1.6h-1.5
		c0-0.7-0.5-1.1-1.2-1.1c-0.8,0-1.6,0.7-1.6,2c0,0.8,0.3,2,1.4,2c1.1,0,1.3-0.9,1.3-1.2h1.5C134.3,72.7,133.9,74.6,131.6,74.6z"/>
	<path class="st0" d="M139.4,74.4v-3.6c0-0.6-0.2-1.4-1.1-1.4c-0.7,0-1.3,0.5-1.3,1.4v3.6h-1.5v-8.3h1.5v2.6l-0.1,0.8
		c0.2-0.4,0.7-1.3,1.9-1.3c1.3,0,2,1,2,2.3v4H139.4z"/>
	<path class="st0" d="M149.4,74.6c-0.5,0-1-0.2-1.4-0.5c-0.2-0.2-0.3-0.3-0.4-0.6l0.1,1.2v1.3h-1.5v-7.7h1.5v0.4l-0.1,0.5
		c0.2-0.4,0.6-1,1.6-1c1.7,0,2.5,1.5,2.5,3.1C151.8,72.9,151,74.6,149.4,74.6z M149.1,69.4c-0.9,0-1.3,1-1.3,1.9c0,0.8,0.2,2,1.2,2
		c1,0,1.3-1.2,1.3-2C150.3,70.4,150,69.4,149.1,69.4z"/>
	<path class="st0" d="M156.1,69.6c-1.1,0-1.6,0.7-1.6,1.5v3.3h-1.5v-6.1h1.5v0.4l-0.1,0.9c0.6-1.1,1-1.5,2.3-1.5v1.5H156.1z"/>
	<path class="st0" d="M158.8,71.8c0.1,0.3,0.3,1.6,1.5,1.6c0.3,0,0.9-0.1,1.1-0.7h1.5c-0.2,0.5-0.7,2-2.7,2c-1.7,0-2.9-1.1-2.9-3.2
		c0-2.2,1.4-3.2,2.9-3.2c1,0,1.8,0.5,2.3,1.2c0.5,0.8,0.6,1.6,0.6,2.5H158.8z M160.1,69.4c-1.1,0-1.3,1.1-1.4,1.5h2.6
		C161.4,69.9,160.9,69.4,160.1,69.4z"/>
	<path class="st0" d="M166.5,74.6c-0.4,0-1.4-0.1-2-0.7c-0.4-0.4-0.5-0.7-0.6-1.4h1.5c0,0.3,0.2,1,1.1,1c0.1,0,0.9,0,0.9-0.6
		c0-0.4-0.3-0.6-1.3-0.9c-1.3-0.5-2.1-0.8-2.1-1.9c0-1,1-1.9,2.4-1.9c0.5,0,1.2,0.1,1.8,0.6c0.4,0.4,0.5,0.7,0.6,1.4h-1.5
		c0-0.4-0.2-0.8-0.9-0.8c-0.6,0-0.8,0.3-0.8,0.6c0,0.3,0.3,0.4,0.8,0.6c1.5,0.6,1.6,0.6,1.9,0.9c0.4,0.3,0.7,0.8,0.7,1.3
		C169,73.9,167.9,74.6,166.5,74.6z"/>
	<path class="st0" d="M172.5,74.6c-0.4,0-1.4-0.1-2-0.7c-0.4-0.4-0.5-0.7-0.6-1.4h1.5c0,0.3,0.2,1,1.1,1c0.1,0,0.9,0,0.9-0.6
		c0-0.4-0.3-0.6-1.3-0.9c-1.3-0.5-2.1-0.8-2.1-1.9c0-1,1-1.9,2.4-1.9c0.5,0,1.2,0.1,1.8,0.6c0.4,0.4,0.5,0.7,0.6,1.4h-1.5
		c0-0.4-0.2-0.8-0.9-0.8c-0.6,0-0.8,0.3-0.8,0.6c0,0.3,0.3,0.4,0.8,0.6c1.5,0.6,1.6,0.6,1.9,0.9c0.4,0.3,0.7,0.8,0.7,1.3
		C175,73.9,173.9,74.6,172.5,74.6z"/>
	<path class="st0" d="M69.2,88.3c-1.1,0-1.5-0.8-1.7-1l0.1,0.4v0.4h-1.5v-8.3h1.5v2.5l-0.1,0.6c0.2-0.3,0.6-1,1.8-1
		c2,0,2.4,2,2.4,3.1C71.6,87,70.5,88.3,69.2,88.3z M68.8,83.2c-0.6,0-1.2,0.5-1.2,1.8c0,1.1,0.4,1.9,1.2,1.9c0.8,0,1.3-0.7,1.3-1.8
		C70.1,83.9,69.5,83.2,68.8,83.2z"/>
	<path class="st0" d="M76.1,88c-0.5,1.3-1.2,1.6-2.3,1.6c-0.3,0-0.5,0-0.7-0.1v-1.2c0.2,0,0.4,0.1,0.5,0.1c0.5,0,0.8-0.3,0.9-0.5
		L72.3,82h1.6l1.3,3.7l0.2,0.8l0.2-0.8l1.3-3.7h1.6L76.1,88z"/>
	<path class="st0" d="M87.7,81.1v7h-1.5v-7h-3v-1.3h7.5v1.3H87.7z"/>
	<path class="st0" d="M99.7,88.1h-1.6L97,82.6l-0.2-1.2l-0.2,1.2l-1.1,5.6H94l-2.6-8.3h1.7l1.5,5.6l0.2,1l0.1-1l1.1-5.6h1.6l1.1,5.6
		l0.1,1l0.2-1l1.5-5.6h1.7L99.7,88.1z"/>
	<path class="st0" d="M103.5,88.1v-8.3h1.5v8.3H103.5z"/>
	<path class="st0" d="M112.2,88.1l-3.3-5.3l-0.6-1.4l0.2,1.9v4.8H107v-8.3h1.6l3.3,5.3l0.6,1.4l-0.2-1.9v-4.8h1.5v8.3H112.2z"/>
	<path class="st0" d="M123.9,85.2h-2.3v3H120v-8.3h3.8c1.8,0,2.8,1.2,2.8,2.6C126.7,84.1,125.4,85.2,123.9,85.2z M123.7,81.1h-2.1
		v2.8h2.1c0.9,0,1.5-0.5,1.5-1.4C125.1,81.4,124.5,81.1,123.7,81.1z"/>
	<path class="st0" d="M128.1,88.1v-8.3h1.5v7h4.6v1.3H128.1z"/>
	<path class="st0" d="M141.5,88.1l-0.6-1.8h-3.5l-0.6,1.8h-1.7l3.2-8.3h1.8l3.2,8.3H141.5z M139.3,81.9l-0.2-0.7l-0.2,0.7l-1.1,3.2
		h2.6L139.3,81.9z"/>
	<path class="st0" d="M149.9,88.1l-3.3-5.3l-0.6-1.4l0.2,1.9v4.8h-1.5v-8.3h1.6l3.3,5.3l0.6,1.4l-0.2-1.9v-4.8h1.5v8.3H149.9z"/>
	<path class="st0" d="M153.6,88.1v-8.3h6.3v1.3h-4.8v2.1h4.4v1.2h-4.4v2.5h5v1.3H153.6z"/>
	<path class="st0" d="M165.6,81.1v7H164v-7h-3v-1.3h7.5v1.3H165.6z"/>
</g>
</svg>
