<?xml version="1.0" encoding="utf-8"?>
<!-- Generator: Adobe Illustrator 25.4.1, SVG Export Plug-In . SVG Version: 6.00 Build 0)  -->
<svg version="1.1" id="レイヤー_1" xmlns="http://www.w3.org/2000/svg" xmlns:xlink="http://www.w3.org/1999/xlink" x="0px"
	 y="0px" viewBox="0 0 226 26" style="enable-background:new 0 0 226 26;" xml:space="preserve">
<style type="text/css">
	.st0{fill:#FFFFFF;}
</style>
<path class="st0" d="M22.7,0.2L27.2,19l5-18.8h3.9l5.1,18.9l4.6-18.9h4.4l-6.4,25.6H39L34,7.1l-5.2,18.7h-4.5L18.8,4H12v21.8H7.2V4
	H0V0.2H22.7z M54.3,25.8h4.8V0.2h-4.8V25.8z M81.8,18.7L71,0.2h-5.7v25.6h4.3V6.2l11.5,19.6h4.9V0.2h-4.3V18.7z M118.6,8.1v0.1
	c0,2.6-0.8,4.6-2.5,5.9c-1.7,1.3-4,2-6.8,2h-3.6v9.7h-4.8V0.2h8.2c3,0,5.3,0.7,7,2C117.7,3.5,118.6,5.5,118.6,8.1z M113.9,8.1
	c0-2.8-1.6-4.2-4.8-4.2h-3.5v8.7h3.5c3.2,0,4.8-1.5,4.8-4.4V8.1z M145.9,0.2h6.2l8.5,25.6h-4.9l-2-6.3h-9.8l-2,6.3h-19V0.2h4.8V22
	h10.9L145.9,0.2z M152.5,16l-3.8-11.9L144.9,16H152.5z M181.1,18.7L170.3,0.2h-5.7v25.6h4.3V6.2l11.5,19.6h4.9V0.2h-4.3V18.7z
	 M214,4v21.8h4.8V4h7.1V0.2h-34.5v25.6H208V22h-11.9v-7.5h9V11h-9V4H214z"/>
</svg>
