<?xml version="1.0" encoding="utf-8"?>
<!-- Generator: Adobe Illustrator 25.4.1, SVG Export Plug-In . SVG Version: 6.00 Build 0)  -->
<svg version="1.1" id="レイヤー_1" xmlns="http://www.w3.org/2000/svg" xmlns:xlink="http://www.w3.org/1999/xlink" x="0px"
	 y="0px" viewBox="0 0 143 123" style="enable-background:new 0 0 143 123;" xml:space="preserve">
<style type="text/css">
	.st0{clip-path:url(#SVGID_00000029747714305591064610000006782472776302310034_);fill:#9108B0;}
	.st1{fill:#FFFFFF;}
</style>
<g>
	<defs>
		<rect id="SVGID_1_" width="143" height="123"/>
	</defs>
	<clipPath id="SVGID_00000060715571258823099880000009911158449880918697_">
		<use xlink:href="#SVGID_1_"  style="overflow:visible;"/>
	</clipPath>
	<polygon style="clip-path:url(#SVGID_00000060715571258823099880000009911158449880918697_);fill:#9108B0;" points="140.8,120.3 
		71.2,107.3 1.6,120.3 1.6,-14.8 140.8,-14.8 	"/>
</g>
<g>
	<g>
		<path class="st1" d="M44.6,71c0,0.9-0.8,1.7-1.8,1.6c-0.9-0.1-1.5-0.8-1.5-1.7V35.3c0-0.9,0.7-1.6,1.5-1.7c1-0.1,1.8,0.7,1.8,1.6
			v17h10.2V40.7c0-5.2-4.2-9.4-9.4-9.4h-4.8c-5.2,0-9.4,4.2-9.4,9.4v24.9c0,5.2,4.2,9.4,9.4,9.4h4.8c5.2,0,9.4-4.2,9.4-9.4V54h-13
			l0,0c1.7,0.6,2.8,2.3,2.8,4.1V71z"/>
	</g>
	<g>
		<g>
			<rect x="86.7" y="30.8" class="st1" width="10.2" height="44.2"/>
		</g>
		<path class="st1" d="M101.2,43.3v-8.5c0-1.8-1.1-3.4-2.8-4.1h0h6.6c3.5,0,6.3,2.8,6.3,6.3l0,5v3.5c0,3.5-2.8,6.3-6.3,6.3h-6.6v0
			c1.7-0.6,2.8-2.3,2.8-4.1v-9.5"/>
	</g>
	<g>
		<g>
			<rect x="58.4" y="30.8" class="st1" width="10.2" height="44.2"/>
		</g>
		<path class="st1" d="M72.9,43.3v-8.5c0-1.8-1.1-3.4-2.8-4.1l0,0h6.6c3.5,0,6.3,2.8,6.3,6.3v5v3.5c0,3.5-2.8,6.3-6.3,6.3h-6.6v0
			c1.7-0.6,2.8-2.3,2.8-4.1v-9.5"/>
		<path class="st1" d="M83,65.4L83,65.4v-5c0-3.5-2.8-6.3-6.3-6.3h-6.6c1.7,0.6,2.8,2.3,2.8,4.1v3.5v3.8V75H83V65.4z"/>
	</g>
</g>
<g>
	<path class="st1" d="M25.2,85c0,0.1,0.1,0.2,0.1,0.4c0,0.9-0.7,1.8-2.3,1.8c-0.3,0-0.5,0-0.6,0c-0.3,0.1-0.4,0.1-0.4,0.3
		c0,0.3,0.5,0.3,0.9,0.4c1.5,0.1,2.1,0.2,2.5,0.6c0.2,0.2,0.4,0.6,0.4,0.9c0,1-1.1,1.6-2.9,1.6c-1.3,0-2.4-0.3-2.4-1.2
		c0-0.8,0.7-0.9,0.9-1c-0.3-0.1-0.8-0.3-0.8-0.8c0-0.5,0.5-0.9,0.8-1.1c-0.3-0.2-0.8-0.5-0.8-1.4c0-1.2,1.1-1.8,2.4-1.8
		c1,0,1.5,0.4,1.7,0.6c0.4-0.5,0.6-0.6,1.2-0.6v1C25.7,84.7,25.5,84.7,25.2,85z M23,84.7c-0.8,0-1.1,0.4-1.1,0.8
		c0,0.7,0.8,0.7,1,0.7c0.2,0,1.1,0,1.1-0.7C24,84.9,23.5,84.7,23,84.7z M23.4,88.9c-0.1,0-0.8,0-0.9,0c-0.4,0.1-0.6,0.2-0.6,0.5
		c0,0.2,0,0.5,1.2,0.5c1.1,0,1.1-0.2,1.1-0.4C24.2,89.1,23.8,89,23.4,88.9z"/>
	<path class="st1" d="M27,83.1v-1.4h1.4v1.4H27z M27,89.5v-5.7h1.4v5.7H27z"/>
	<path class="st1" d="M32.7,85c-1,0-1.5,0.7-1.5,1.4v3.1h-1.4v-5.7h1.4v0.4L31.1,85c0.6-1,1-1.4,2.1-1.4V85H32.7z"/>
	<path class="st1" d="M34.2,89.5v-7.8h1.4v7.8H34.2z"/>
	<path class="st1" d="M39.2,89.6c-0.4,0-1.3-0.1-1.8-0.7c-0.3-0.3-0.5-0.6-0.5-1.3h1.4c0,0.3,0.2,0.9,1,0.9c0.1,0,0.8,0,0.8-0.6
		c0-0.4-0.3-0.5-1.2-0.8c-1.2-0.4-2-0.7-2-1.7c0-1,0.9-1.7,2.2-1.7c0.5,0,1.2,0.1,1.7,0.6c0.4,0.4,0.5,0.6,0.5,1.3H40
		c0-0.4-0.2-0.8-0.8-0.8c-0.6,0-0.8,0.3-0.8,0.5c0,0.3,0.3,0.4,0.7,0.6c1.4,0.5,1.5,0.6,1.8,0.8c0.4,0.3,0.6,0.7,0.6,1.2
		C41.5,89,40.5,89.6,39.2,89.6z"/>
	<path class="st1" d="M49.3,85c-1,0-1.5,0.7-1.5,1.4v3.1h-1.4v-5.7h1.4v0.4L47.7,85c0.6-1,1-1.4,2.1-1.4V85H49.3z"/>
	<path class="st1" d="M51.8,87c0.1,0.3,0.3,1.4,1.4,1.4c0.3,0,0.8-0.1,1-0.7h1.4c-0.2,0.5-0.7,1.8-2.5,1.8c-1.6,0-2.7-1-2.7-3
		c0-2,1.3-3,2.7-3c0.9,0,1.7,0.4,2.1,1.1c0.5,0.7,0.5,1.5,0.6,2.3H51.8z M53.1,84.8c-1,0-1.2,1-1.3,1.4h2.4
		C54.2,85.2,53.8,84.8,53.1,84.8z"/>
	<path class="st1" d="M59,89.6c-0.4,0-1.3-0.1-1.9-0.7c-0.3-0.3-0.5-0.6-0.5-1.3H58c0,0.3,0.2,0.9,1,0.9c0.1,0,0.8,0,0.8-0.6
		c0-0.4-0.3-0.5-1.2-0.8c-1.2-0.4-2-0.7-2-1.7c0-1,0.9-1.7,2.2-1.7c0.5,0,1.2,0.1,1.7,0.6c0.4,0.4,0.5,0.6,0.5,1.3h-1.4
		c0-0.4-0.2-0.8-0.8-0.8c-0.6,0-0.8,0.3-0.8,0.5c0,0.3,0.3,0.4,0.7,0.6c1.4,0.5,1.5,0.6,1.8,0.8c0.4,0.3,0.6,0.7,0.6,1.2
		C61.3,89,60.3,89.6,59,89.6z"/>
	<path class="st1" d="M63.6,87c0.1,0.3,0.3,1.4,1.4,1.4c0.3,0,0.8-0.1,1-0.7h1.4c-0.2,0.5-0.7,1.8-2.5,1.8c-1.6,0-2.7-1-2.7-3
		c0-2,1.3-3,2.7-3c0.9,0,1.7,0.4,2.1,1.1c0.5,0.7,0.5,1.5,0.6,2.3H63.6z M64.9,84.8c-1,0-1.2,1-1.3,1.4H66
		C66,85.2,65.6,84.8,64.9,84.8z"/>
	<path class="st1" d="M72.4,89.5c-0.2-0.2-0.2-0.6-0.2-0.8c-0.2,0.3-0.5,1-1.8,1c-1.6,0-2-1-2-1.7c0-1.3,1.2-1.7,2.5-1.9
		c0.6-0.1,1.3-0.2,1.3-0.7c0-0.5-0.5-0.6-0.9-0.6c-0.1,0-0.7,0-1.1,0.4c-0.2,0.2-0.2,0.3-0.2,0.6h-1.3c0.1-1.8,1.7-2,2.5-2
		c1.3,0,2.5,0.6,2.5,2.1v3.1c0,0.2,0,0.5,0.3,0.7H72.4z M71.1,86.9c-0.5,0.1-1.3,0.3-1.3,1c0,0.4,0.4,0.7,0.9,0.7
		c0.6,0,1.4-0.4,1.4-1.2v-0.6l0.1-0.4C71.9,86.7,71.7,86.8,71.1,86.9z"/>
	<path class="st1" d="M77.6,85c-1,0-1.5,0.7-1.5,1.4v3.1h-1.4v-5.7h1.4v0.4L76,85c0.6-1,1-1.4,2.1-1.4V85H77.6z"/>
	<path class="st1" d="M81.4,89.6c-1.9,0-2.7-1.4-2.7-2.9c0-2.2,1.5-3.1,2.9-3.1c0.7,0,1.4,0.2,1.9,0.7c0.5,0.5,0.6,0.8,0.6,1.5h-1.4
		c0-0.6-0.5-1.1-1.1-1.1c-0.7,0-1.5,0.6-1.5,1.9c0,0.7,0.3,1.9,1.3,1.9c1,0,1.2-0.9,1.2-1.1h1.4C84,87.9,83.6,89.6,81.4,89.6z"/>
	<path class="st1" d="M88.7,89.5v-3.4c0-0.5-0.2-1.3-1-1.3c-0.6,0-1.2,0.5-1.2,1.3v3.4h-1.4v-7.8h1.4v2.4l-0.1,0.7
		c0.2-0.4,0.7-1.2,1.8-1.2c1.2,0,1.9,1,1.9,2.1v3.7H88.7z"/>
	<path class="st1" d="M98,89.6c-0.5,0-0.9-0.2-1.3-0.5c-0.2-0.2-0.2-0.3-0.4-0.6l0.1,1.1v1.3h-1.4v-7.1h1.4v0.4l-0.1,0.5
		c0.2-0.4,0.5-1,1.5-1c1.6,0,2.3,1.4,2.3,2.9C100.2,88.1,99.5,89.6,98,89.6z M97.7,84.8c-0.8,0-1.2,1-1.2,1.8c0,0.7,0.1,1.8,1.2,1.8
		c0.9,0,1.2-1.1,1.2-1.9C98.8,85.7,98.5,84.8,97.7,84.8z"/>
	<path class="st1" d="M104.2,85c-1,0-1.5,0.7-1.5,1.4v3.1h-1.4v-5.7h1.4v0.4l-0.1,0.8c0.6-1,1-1.4,2.1-1.4V85H104.2z"/>
	<path class="st1" d="M106.7,87c0.1,0.3,0.3,1.4,1.4,1.4c0.3,0,0.8-0.1,1-0.7h1.4c-0.2,0.5-0.7,1.8-2.5,1.8c-1.6,0-2.7-1-2.7-3
		c0-2,1.3-3,2.7-3c0.9,0,1.7,0.4,2.1,1.1c0.5,0.7,0.5,1.5,0.6,2.3H106.7z M108,84.8c-1,0-1.2,1-1.3,1.4h2.4
		C109.1,85.2,108.7,84.8,108,84.8z"/>
	<path class="st1" d="M113.9,89.6c-0.4,0-1.3-0.1-1.9-0.7c-0.3-0.3-0.5-0.6-0.5-1.3h1.4c0,0.3,0.2,0.9,1,0.9c0.1,0,0.8,0,0.8-0.6
		c0-0.4-0.3-0.5-1.2-0.8c-1.2-0.4-2-0.7-2-1.7c0-1,0.9-1.7,2.2-1.7c0.5,0,1.2,0.1,1.7,0.6c0.4,0.4,0.5,0.6,0.5,1.3h-1.4
		c0-0.4-0.2-0.8-0.8-0.8c-0.6,0-0.8,0.3-0.8,0.5c0,0.3,0.3,0.4,0.7,0.6c1.4,0.5,1.5,0.6,1.8,0.8c0.4,0.3,0.6,0.7,0.6,1.2
		C116.2,89,115.1,89.6,113.9,89.6z"/>
	<path class="st1" d="M119.5,89.6c-0.4,0-1.3-0.1-1.8-0.7c-0.3-0.3-0.5-0.6-0.5-1.3h1.4c0,0.3,0.2,0.9,1,0.9c0.1,0,0.8,0,0.8-0.6
		c0-0.4-0.3-0.5-1.2-0.8c-1.2-0.4-2-0.7-2-1.7c0-1,0.9-1.7,2.2-1.7c0.5,0,1.2,0.1,1.7,0.6c0.4,0.4,0.5,0.6,0.5,1.3h-1.4
		c0-0.4-0.2-0.8-0.8-0.8c-0.6,0-0.8,0.3-0.8,0.5c0,0.3,0.3,0.4,0.7,0.6c1.4,0.5,1.5,0.6,1.8,0.8c0.4,0.3,0.6,0.7,0.6,1.2
		C121.8,89,120.7,89.6,119.5,89.6z"/>
	<path class="st1" d="M26.5,102.4c-1,0-1.4-0.7-1.6-0.9l0.1,0.4v0.4h-1.4v-7.8h1.4v2.3L25,97.3c0.2-0.3,0.6-0.9,1.6-0.9
		c1.8,0,2.2,1.9,2.2,2.9C28.8,101.2,27.8,102.4,26.5,102.4z M26.2,97.6c-0.6,0-1.1,0.5-1.1,1.7c0,1,0.4,1.8,1.1,1.8
		c0.7,0,1.2-0.7,1.2-1.7C27.4,98.3,26.9,97.6,26.2,97.6z"/>
	<path class="st1" d="M33,102.2c-0.5,1.2-1.1,1.5-2.1,1.5c-0.3,0-0.5,0-0.6-0.1v-1.1c0.2,0,0.4,0.1,0.5,0.1c0.5,0,0.7-0.3,0.9-0.5
		l-2.1-5.5h1.5l1.2,3.4l0.2,0.7l0.2-0.8l1.2-3.4h1.5L33,102.2z"/>
	<path class="st1" d="M43.7,95.7v6.6h-1.4v-6.6h-2.8v-1.2h7v1.2H43.7z"/>
	<path class="st1" d="M54.9,102.3h-1.4l-1.1-5.2L52.2,96l-0.1,1.1l-1.1,5.2h-1.4l-2.4-7.8h1.6l1.4,5.2l0.2,0.9l0.1-1l1.1-5.2H53
		l1.1,5.2l0.1,1l0.2-0.9l1.4-5.2h1.6L54.9,102.3z"/>
	<path class="st1" d="M58.5,102.3v-7.8h1.4v7.8H58.5z"/>
	<path class="st1" d="M66.5,102.3l-3.1-4.9l-0.6-1.3l0.1,1.7v4.5h-1.4v-7.8h1.5l3.1,4.9l0.6,1.3L66.7,99v-4.5h1.4v7.8H66.5z"/>
	<path class="st1" d="M77.4,99.5h-2.1v2.8h-1.4v-7.8h3.6c1.7,0,2.6,1.1,2.6,2.5C80,98.5,78.8,99.5,77.4,99.5z M77.1,95.7h-1.9v2.6
		h1.9c0.8,0,1.4-0.4,1.4-1.3C78.5,96,77.9,95.7,77.1,95.7z"/>
	<path class="st1" d="M81.3,102.3v-7.8h1.4v6.6H87v1.2H81.3z"/>
	<path class="st1" d="M93.7,102.3l-0.6-1.7h-3.3l-0.6,1.7h-1.6l3-7.8h1.6l3,7.8H93.7z M91.7,96.4l-0.2-0.7l-0.2,0.7l-1,3h2.4
		L91.7,96.4z"/>
	<path class="st1" d="M101.5,102.3l-3.1-4.9l-0.6-1.3l0.1,1.7v4.5h-1.4v-7.8h1.5l3.1,4.9l0.6,1.3l-0.1-1.7v-4.5h1.4v7.8H101.5z"/>
	<path class="st1" d="M104.9,102.3v-7.8h5.9v1.2h-4.4v1.9h4.1v1.1h-4.1v2.3h4.6v1.2H104.9z"/>
	<path class="st1" d="M116.1,95.7v6.6h-1.4v-6.6h-2.8v-1.2h7v1.2H116.1z"/>
</g>
</svg>
