<?xml version="1.0" encoding="utf-8"?>
<!-- Generator: Adobe Illustrator 25.4.1, SVG Export Plug-In . SVG Version: 6.00 Build 0)  -->
<svg version="1.1" id="レイヤー_1" xmlns="http://www.w3.org/2000/svg" xmlns:xlink="http://www.w3.org/1999/xlink" x="0px"
	 y="0px" viewBox="0 0 518 75" style="enable-background:new 0 0 518 75;" xml:space="preserve">
<style type="text/css">
	.st0{fill:#FFFFFF;}
	.st1{fill:#711584;}
</style>
<g>
	<g>
		<rect x="2.4" y="4.6" class="st0" width="513.2" height="67.9"/>
		<path class="st1" d="M515.6,74.5H2.4c-1.1,0-2.1-0.9-2.1-2.1V4.6c0-1.1,0.9-2.1,2.1-2.1h513.2c1.1,0,2.1,0.9,2.1,2.1v67.9
			C517.7,73.6,516.7,74.5,515.6,74.5z M4.5,70.4h509.1V6.6H4.5V70.4z"/>
	</g>
	<g>
		<rect x="2.4" y="2.5" class="st0" width="513.2" height="67.9"/>
		<path class="st1" d="M515.6,72.5H2.4c-1.1,0-2.1-0.9-2.1-2.1V2.5c0-1.1,0.9-2.1,2.1-2.1h513.2c1.1,0,2.1,0.9,2.1,2.1v67.9
			C517.7,71.6,516.7,72.5,515.6,72.5z M4.5,68.4h509.1V4.6H4.5V68.4z"/>
	</g>
	<g>
		<g>
			<path class="st1" d="M53.9,23h14c3.6,0,6,0.7,7.3,2.3c1.1,1.3,1.8,3.7,1.8,6.2c0,3-0.9,5.5-2.4,7c-1.4,1.3-3.5,1.9-7,1.9h-3.8
				c-3.5,0.2-4.4,1-4.3,3.7v2.3h16.9V52H52.9v-6.5c-0.1-7.9,3-11.1,11-11.1h3.6c2.5,0,2.9-0.5,2.9-2.9c0-2.4-0.7-3-3.9-3H53.9V23z"
				/>
			<path class="st1" d="M99.7,22.9c2,0,3.8,0.7,5.2,2c1.6,1.6,2.1,2.9,2.2,5.9v13.8c0.1,4.7-3,7.7-7.9,7.5h-8.4
				c-5,0.2-7.8-2.4-7.8-7.4V30.7c-0.2-5.2,2.2-7.8,7.3-7.8H99.7z M93,28.4c-2.6,0.1-3.2,0.7-3.3,3.5v10.9c0.1,3.4,0.2,3.5,3.2,3.6
				h4.8c2.4,0,2.7-0.4,2.8-3.2V31.8c0-2.5-0.8-3.2-3.6-3.3H93z"/>
			<path class="st1" d="M114.3,23h14c3.6,0,6,0.7,7.3,2.3c1.1,1.3,1.8,3.7,1.8,6.2c0,3-0.9,5.5-2.4,7c-1.4,1.3-3.5,1.9-7,1.9h-3.8
				c-3.5,0.2-4.4,1-4.3,3.7v2.3h16.9V52h-23.5v-6.5c-0.1-7.9,3-11.1,11-11.1h3.6c2.5,0,2.9-0.5,2.9-2.9c0-2.4-0.7-3-3.9-3h-12.6V23z
				"/>
			<path class="st1" d="M144.4,23h14c3.6,0,6,0.7,7.3,2.3c1.1,1.3,1.8,3.7,1.8,6.2c0,3-0.9,5.5-2.4,7c-1.4,1.3-3.5,1.9-7,1.9h-3.8
				c-3.5,0.2-4.4,1-4.3,3.7v2.3H167V52h-23.5v-6.5c-0.1-7.9,3-11.1,11-11.1h3.6c2.5,0,2.9-0.5,2.9-2.9c0-2.4-0.7-3-3.9-3h-12.6V23z"
				/>
			<path class="st1" d="M177.4,43.7V35c-1.3,0.8-1.9,1.1-4.4,1.9v-6.1c3.6-1.9,5.8-4.4,7.1-8.4h6.4c-0.3,1.3-0.4,1.4-0.9,2.6h18v5
				h-8.6v3.4h7.3V39h-7.3v4.8h9.1v5.5h-9.1v5.3h-6.3v-5.3H173v-5.5H177.4z M188.6,33.6v-3.4h-6c-1.4,1.7-1.6,1.9-3.4,3.4H188.6z
				 M188.6,39h-5.2v4.8h5.2V39z"/>
			<path class="st1" d="M210.4,40.2l11.9-0.2l-0.4-5.5l-9.3,0.1v-5.5l8.9-0.1l-0.4-5.8h6.1l0.5,5.8l11.3-0.2v5.5l-10.9,0.2l0.4,5.5
				l12.3-0.2v5.5l-12,0.2l0.6,8.5h-6.1l-0.6-8.4l-12.2,0.2V40.2z M235.1,22.4v5.4h-3.4v-5.4H235.1z M236.3,22.4h3.3v5.4h-3.3V22.4z"
				/>
			<path class="st1" d="M248.6,32l6.1-0.1l-0.7-5.5h6l0.6,5.3l16.4-0.3c-0.4,12.2-2.5,15.1-11.9,15.8l-1.1-5.4c5.2-0.6,5.8-1,6.3-5
				l-9.2,0.2l2.3,16.9h-5.9L255.3,37l-6.7,0.2V32z"/>
			<path class="st1" d="M294.2,23.5v15.4c0.1,9-3.7,14.4-10.7,15.4v-6.7c3.4-1,4.5-2.9,4.7-8.1V23.5H294.2z M298.1,23.5h6.1v23.3
				c4.9-0.2,5.5-1.1,5.6-8v-8.3h5.9v9.1c0,5.9-0.7,8.6-2.9,10.6c-2.3,2.1-4.8,2.9-9.5,2.9h-5.3V23.5z"/>
			<path class="st1" d="M330.7,38.3c-0.4,9.6-3,14-9.7,16.4v-6.4c2.9-1.7,4-4.2,4.2-10H330.7z M321.7,22.7c3.6,0.6,5.3,1,9,1.9v5.8
				c-3.4-1-5.1-1.4-9-2.2V22.7z M321.7,30.1c4.6,0.8,6,1.1,9,1.9v5.3c-3.4-0.8-5.1-1.2-9-1.9V30.1z M338.1,37.8v6.1
				c0.1,7.1-1.8,9.6-8,11v-5.7c2.5-0.7,3.1-1.7,3-4.8v-6.6H338.1z M339.5,24.2v-1.9h5.5v1.9h7.8v4.7h-11.6l-1.3,2.9
				c2.6-0.1,3-0.1,5.3-0.3l-0.9-1.7h5.6c1.5,2.8,2.2,4.1,3.2,7h-5.9l-0.4-1.1c-3.2,0.5-6.1,0.6-12,0.8h-2.8v-4.6h2.2l1.1-3.1h-3.5
				v-4.7H339.5z M339.3,37.8h4.9v14.6h-4.9V37.8z M350.6,37.8v11h1.1c0.8,0,1-0.1,1.9-1.3v4.9c-0.7,1.4-1.4,1.8-3.4,1.7h-2.1
				c-2.3-0.1-2.7-0.7-2.6-3.8V37.8H350.6z"/>
			<path class="st1" d="M357.9,38.1c4.2-2.2,6.5-4.5,8.8-8.9h5.7c-1.1,3.2-2.3,5.3-5.2,8.8v16.3h-6V42.6c-1.4,0.9-2,1.3-3.4,1.9
				V38.1z M370.8,22.3c-1.7,5.4-7,10.8-12.7,12.8v-6.2c3.1-1.4,5.5-3.8,6.8-6.6H370.8z M371.4,32.5h18.9v5.3h-4.8v10.8
				c0.1,3.9-1.5,5.5-5.5,5.6h-6v-5.4h5.5v-11h-8.1V32.5z M372.9,23.1h15.8v5.2h-15.8V23.1z"/>
			<path class="st1" d="M407.1,28.3v4.1h-12.5v-4.1H407.1z M406.4,43.4v6.7c-0.1,3.4-0.7,4.1-3.7,4.2h-7.2V43.4H406.4z M406,23.5v4
				h-10.2v-4H406z M406,33.5v4h-10.3v-4H406z M406,38.6v4h-10.3v-4H406z M402,49.9v-2.2h-2v2.2H402z M411.5,36.1l0.6-2.4h-3.6v-4.7
				h4.9l0.5-1.6h-5.8V23h18.5v4.5h-7.3l-0.5,1.6h6.3l-0.2,7.1h2.8v4.6h-20.5v-4.6H411.5z M425.4,41.7v7.5c0.1,3.9-1,4.9-4.9,4.9
				h-12.2V41.7H425.4z M419.7,49.6v-3.7h-5.8v3.7H419.7z M419.6,36.1l0.1-2.4h-2.2l-0.7,2.4H419.6z"/>
			<path class="st1" d="M432.6,35.2V30h12.2v-7.7h6.5v7.6h12.2v5.3h-11.7c1.5,6.5,5.6,10.6,12.2,12.2V54c-7.6-1.4-12.9-5.2-16-11.4
				c-3.9,7-8.5,10.3-16,11.5v-6.2c6.2-1.5,11.2-6.6,12.3-12.6H432.6z"/>
			<path class="st1" d="M472.9,25.6l-1.6-2.4h6.6l1.5,2.4h2.6v-3.1h6.2v3.1h2.5l1.8-2.4h6.4l-1.5,2.4h3.7V32h-3.5v4.1h-24.8V32h-3.4
				v-6.4H472.9z M499,37v10.7c-0.1,2.7-0.8,3.5-3.5,4c1.3,1.5,1.9,2.1,3.2,3.1h-7.7c-1.2-1.2-1.7-1.8-2.8-3.2h-6.2
				c-0.8,1.2-1.2,1.7-2.9,3.2h-7.4c1.9-1.5,2.6-2,3.7-3.2h-3.8V37H499z M495.1,30v-1h-19.9v1H495.1z M493.2,40.9v-1.2h-15.9v1.2
				H493.2z M493.2,44.6v-1.2h-15.9v1.2H493.2z M493.2,48.4v-1.2h-15.9v1.2H493.2z M491.4,33.6v-1h-12.7v1H491.4z"/>
		</g>
	</g>
	<path class="st1" d="M39.8,59.6c-0.4,0-0.8-0.1-1.1-0.4L18.9,40.1c-0.3-0.3-0.5-0.7-0.5-1.1s0.2-0.8,0.5-1.1l19.9-19.1
		c0.6-0.6,1.6-0.6,2.2,0c0.6,0.6,0.6,1.6,0,2.2L22.1,39l18.7,18c0.6,0.6,0.6,1.6,0,2.2C40.6,59.5,40.2,59.6,39.8,59.6z"/>
</g>
</svg>
