<?xml version="1.0" encoding="utf-8"?>
<!-- Generator: Adobe Illustrator 25.4.1, SVG Export Plug-In . SVG Version: 6.00 Build 0)  -->
<svg version="1.1" id="レイヤー_1" xmlns="http://www.w3.org/2000/svg" xmlns:xlink="http://www.w3.org/1999/xlink" x="0px"
	 y="0px" viewBox="0 0 334 60" style="enable-background:new 0 0 334 60;" xml:space="preserve">
<style type="text/css">
	.st0{fill:#FFFFFF;}
</style>
<g>
	<g>
		<g>
			<path class="st0" d="M84,53.2c0,1.2-1,2.2-2.3,2.2c-1.2-0.1-2-1.1-2-2.2v-47c0-1.2,0.9-2.2,2-2.2C82.9,3.8,84,4.8,84,6.1v22.4
				h13.4V13.2c0-6.8-5.5-12.4-12.4-12.4h-6.3c-6.8,0-12.4,5.5-12.4,12.4V46c0,6.8,5.5,12.4,12.4,12.4H85c6.8,0,12.4-5.5,12.4-12.4
				V30.8H80.3v0c2.2,0.8,3.7,3,3.7,5.3V53.2z"/>
		</g>
		<g>
			<g>
				<rect x="139.4" y="0.1" class="st0" width="13.4" height="58.3"/>
			</g>
			<path class="st0" d="M158.5,16.7V5.5c0-2.4-1.5-4.5-3.7-5.3l0,0h8.7c4.6,0,8.3,3.7,8.3,8.3V15v4.6c0,4.6-3.7,8.3-8.3,8.3h-8.7
				l0,0c2.2-0.8,3.7-3,3.7-5.3V10.1"/>
		</g>
		<g>
			<g>
				<rect x="102.1" y="0.1" class="st0" width="13.4" height="58.3"/>
			</g>
			<path class="st0" d="M121.2,16.7V5.5c0-2.4-1.5-4.5-3.7-5.3v0h8.7c4.6,0,8.3,3.7,8.3,8.3V15v4.6c0,4.6-3.7,8.3-8.3,8.3h-8.7l0,0
				c2.2-0.8,3.7-3,3.7-5.3V10.1"/>
			<path class="st0" d="M134.6,45.7L134.6,45.7v-6.6c0-4.6-3.7-8.3-8.3-8.3h-8.7c2.2,0.8,3.7,3,3.7,5.3v4.6v5v12.7h13.4V45.7z"/>
		</g>
	</g>
</g>
<g>
	<path class="st0" d="M4,4.2h2.6l3.9,11.1H8L7.2,13H3.2l-0.7,2.3H0L4,4.2z M3.8,11.1h2.8L5.2,6.7L3.8,11.1z"/>
	<path class="st0" d="M20.1,5.4c0.3,0.5,0.5,1,0.5,1.7c0,0.7-0.2,1.2-0.5,1.6c-0.2,0.2-0.5,0.4-0.8,0.6c0.6,0.2,1,0.5,1.3,1
		c0.3,0.4,0.4,1,0.4,1.6c0,0.7-0.2,1.2-0.5,1.8c-0.2,0.3-0.5,0.6-0.8,0.9c-0.4,0.3-0.8,0.5-1.2,0.6c-0.5,0.1-1,0.2-1.6,0.2h-5V4.2
		h5.3C18.6,4.2,19.6,4.6,20.1,5.4z M14.1,6.1v2.4h2.7c0.5,0,0.9-0.1,1.2-0.3c0.3-0.2,0.4-0.5,0.4-1c0-0.5-0.2-0.9-0.6-1
		c-0.3-0.1-0.8-0.2-1.3-0.2H14.1z M14.1,10.4v3h2.7c0.5,0,0.9-0.1,1.1-0.2c0.5-0.2,0.7-0.7,0.7-1.4c0-0.6-0.2-1-0.7-1.2
		c-0.3-0.1-0.6-0.2-1.1-0.2H14.1z"/>
	<path class="st0" d="M31.5,14.3c-0.8,0.9-2,1.3-3.6,1.3c-1.6,0-2.8-0.4-3.6-1.3c-1.1-1.1-1.7-2.6-1.7-4.6c0-2,0.6-3.5,1.7-4.6
		c0.8-0.9,2-1.3,3.6-1.3c1.6,0,2.8,0.4,3.6,1.3c1.1,1,1.7,2.5,1.7,4.6C33.2,11.7,32.6,13.2,31.5,14.3z M30.1,12.6
		c0.5-0.7,0.8-1.6,0.8-2.9c0-1.2-0.3-2.2-0.8-2.9c-0.5-0.7-1.3-1-2.2-1c-0.9,0-1.6,0.3-2.2,1s-0.8,1.6-0.8,2.9
		c0,1.2,0.3,2.2,0.8,2.9s1.3,1,2.2,1C28.8,13.6,29.5,13.3,30.1,12.6z"/>
	<path class="st0" d="M35,4.2h2.4V11c0,0.8,0.1,1.3,0.3,1.7c0.3,0.6,0.9,0.9,1.8,0.9c0.9,0,1.5-0.3,1.8-0.9c0.2-0.4,0.3-0.9,0.3-1.7
		V4.2h2.4V11c0,1.2-0.2,2.1-0.5,2.7c-0.7,1.2-2,1.8-3.9,1.8c-1.9,0-3.2-0.6-3.9-1.8C35.1,13.1,35,12.2,35,11V4.2z"/>
	<path class="st0" d="M54.1,4.2v2h-3.3v9.1h-2.3V6.2h-3.3v-2H54.1z"/>
</g>
<g>
	<path class="st0" d="M184.5,30.9c0,0.2,0.1,0.3,0.1,0.7c0,1.4-1,2.8-3.6,2.8c-0.5,0-0.7,0-0.9-0.1c-0.4,0.1-0.6,0.2-0.6,0.5
		c0,0.4,0.7,0.5,1.3,0.5c2.3,0.2,3.3,0.3,3.9,0.9c0.3,0.3,0.6,0.9,0.6,1.4c0,1.6-1.7,2.4-4.5,2.4c-2.1,0-3.8-0.4-3.8-1.9
		c0-1.3,1.1-1.4,1.4-1.5c-0.4-0.1-1.2-0.4-1.2-1.2c0-0.8,0.8-1.4,1.3-1.7c-0.4-0.3-1.2-0.8-1.2-2.1c0-1.9,1.7-2.8,3.8-2.8
		c1.6,0,2.3,0.6,2.6,0.9c0.7-0.7,0.9-0.9,1.8-0.9v1.6C185.2,30.4,185,30.4,184.5,30.9z M181.1,30.4c-1.2,0-1.7,0.6-1.7,1.2
		c0,1,1.2,1.1,1.6,1.1c0.4,0,1.7-0.1,1.7-1.2C182.7,30.7,181.9,30.4,181.1,30.4z M181.6,37c-0.2,0-1.2,0-1.4,0
		c-0.6,0.2-0.9,0.3-0.9,0.8c0,0.3,0,0.7,1.8,0.7c1.6,0,1.8-0.3,1.8-0.7C183,37.2,182.2,37,181.6,37z"/>
	<path class="st0" d="M187.2,28v-2.1h2.2V28H187.2z M187.2,37.9V29h2.2v8.9H187.2z"/>
	<path class="st0" d="M196.1,31c-1.5,0-2.4,1.1-2.4,2.1v4.8h-2.2V29h2.2v0.6l-0.2,1.3c0.9-1.6,1.5-2.1,3.3-2.2V31H196.1z"/>
	<path class="st0" d="M198.4,37.9v-12h2.2v12H198.4z"/>
	<path class="st0" d="M206.2,38.1c-0.6,0-1.9-0.1-2.9-1c-0.5-0.5-0.7-1-0.8-2.1h2.2c0.1,0.4,0.2,1.4,1.6,1.4c0.2,0,1.3,0,1.3-0.9
		c0-0.6-0.4-0.8-1.8-1.3c-1.8-0.7-3-1.1-3-2.7c0-1.5,1.4-2.7,3.4-2.7c0.7,0,1.8,0.1,2.6,0.9c0.5,0.5,0.7,1,0.8,2h-2.2
		c0-0.6-0.3-1.2-1.3-1.2c-0.9,0-1.2,0.5-1.2,0.8c0,0.4,0.4,0.6,1.1,0.9c2.2,0.8,2.3,0.9,2.8,1.2c0.6,0.4,1,1.1,1,1.9
		C209.8,37,208.1,38.1,206.2,38.1z"/>
	<path class="st0" d="M221.8,31c-1.5,0-2.4,1.1-2.4,2.1v4.8h-2.2V29h2.2v0.6l-0.2,1.3c0.9-1.6,1.5-2.1,3.3-2.2V31H221.8z"/>
	<path class="st0" d="M225.7,34.1c0.1,0.4,0.4,2.2,2.2,2.2c0.4,0,1.3-0.1,1.6-1.1h2.2c-0.3,0.7-1,2.8-3.9,2.8
		c-2.4,0-4.2-1.6-4.2-4.6c0-3.2,2-4.7,4.1-4.7c1.5,0,2.6,0.7,3.3,1.7c0.8,1.2,0.8,2.4,0.9,3.6H225.7z M227.7,30.6
		c-1.6,0-1.9,1.5-2,2.1h3.8C229.4,31.3,228.8,30.6,227.7,30.6z"/>
	<path class="st0" d="M236.8,38.1c-0.6,0-1.9-0.1-2.9-1c-0.5-0.5-0.7-1-0.8-2.1h2.2c0.1,0.4,0.2,1.4,1.6,1.4c0.2,0,1.3,0,1.3-0.9
		c0-0.6-0.4-0.8-1.8-1.3c-1.8-0.7-3-1.1-3-2.7c0-1.5,1.4-2.7,3.4-2.7c0.7,0,1.8,0.1,2.6,0.9c0.5,0.5,0.7,1,0.8,2H238
		c0-0.6-0.3-1.2-1.3-1.2c-0.9,0-1.2,0.5-1.2,0.8c0,0.4,0.4,0.6,1.1,0.9c2.2,0.8,2.3,0.9,2.8,1.2c0.6,0.4,1,1.1,1,1.9
		C240.4,37,238.8,38.1,236.8,38.1z"/>
	<path class="st0" d="M243.9,34.1c0.1,0.4,0.4,2.2,2.2,2.2c0.4,0,1.3-0.1,1.6-1.1h2.2c-0.3,0.7-1,2.8-3.9,2.8
		c-2.4,0-4.2-1.6-4.2-4.6c0-3.2,2-4.7,4.2-4.7c1.5,0,2.6,0.7,3.3,1.7c0.8,1.2,0.8,2.4,0.9,3.6H243.9z M245.9,30.6
		c-1.6,0-1.9,1.5-2,2.1h3.8C247.6,31.3,247,30.6,245.9,30.6z"/>
	<path class="st0" d="M257.5,37.9c-0.2-0.3-0.3-0.9-0.3-1.3c-0.2,0.5-0.8,1.5-2.9,1.5c-2.4,0-3.1-1.5-3.1-2.6c0-2,1.8-2.7,3.8-2.9
		c1-0.1,2-0.3,2-1.1c0-0.7-0.8-0.9-1.4-0.9c-0.2,0-1.1,0-1.7,0.5c-0.2,0.2-0.3,0.4-0.3,0.9h-2c0.2-2.8,2.6-3.1,3.8-3.1
		c2,0,3.8,0.9,3.8,3.2v4.9c0,0.3,0.1,0.7,0.5,1H257.5z M255.6,33.9c-0.8,0.1-2,0.4-2,1.5c0,0.6,0.6,1.1,1.4,1.1
		c0.9,0,2.2-0.6,2.2-1.8v-1l0.1-0.6C256.9,33.6,256.5,33.7,255.6,33.9z"/>
	<path class="st0" d="M265.7,31c-1.5,0-2.4,1.1-2.4,2.1v4.8h-2.2V29h2.2v0.6l-0.2,1.3c0.9-1.6,1.5-2.1,3.3-2.2V31H265.7z"/>
	<path class="st0" d="M271.5,38.1c-3,0-4.2-2.2-4.2-4.5c0-3.4,2.4-4.7,4.5-4.7c1.1,0,2.1,0.3,2.9,1.1c0.7,0.7,0.9,1.3,1,2.3h-2.2
		c-0.1-0.9-0.7-1.6-1.7-1.6c-1.1,0-2.3,1-2.3,2.9c0,1.2,0.4,2.9,2.1,2.9c1.6,0,1.8-1.3,1.9-1.7h2.2
		C275.5,35.4,274.9,38.1,271.5,38.1z"/>
	<path class="st0" d="M282.8,37.9v-5.2c0-0.8-0.3-2-1.5-2c-1,0-1.8,0.8-1.8,2v5.2h-2.2v-12h2.2v3.7l-0.1,1.1
		c0.3-0.6,1.1-1.9,2.8-1.9c1.9,0,2.9,1.5,2.9,3.3v5.8H282.8z"/>
	<path class="st0" d="M297.2,38.1c-0.8,0-1.4-0.3-1.9-0.8c-0.2-0.2-0.4-0.4-0.6-0.9l0.1,1.7v1.9h-2.2V29h2.2v0.6l-0.1,0.7
		c0.3-0.6,0.8-1.5,2.4-1.5c2.5,0,3.6,2.2,3.6,4.5C300.7,35.6,299.5,38.1,297.2,38.1z M296.7,30.6c-1.3,0-1.9,1.5-1.9,2.8
		c0,1.1,0.2,2.8,1.8,2.8c1.4,0,1.9-1.7,1.9-2.9C298.5,32.1,298,30.6,296.7,30.6z"/>
	<path class="st0" d="M306.8,31c-1.5,0-2.4,1.1-2.4,2.1v4.8h-2.2V29h2.2v0.6l-0.2,1.3c0.9-1.6,1.5-2.1,3.3-2.2V31H306.8z"/>
	<path class="st0" d="M310.6,34.1c0.1,0.4,0.4,2.2,2.2,2.2c0.4,0,1.3-0.1,1.6-1.1h2.2c-0.3,0.7-1,2.8-3.9,2.8
		c-2.4,0-4.2-1.6-4.2-4.6c0-3.2,2-4.7,4.1-4.7c1.5,0,2.6,0.7,3.3,1.7c0.8,1.2,0.8,2.4,0.9,3.6H310.6z M312.6,30.6
		c-1.6,0-1.9,1.5-2,2.1h3.8C314.4,31.3,313.7,30.6,312.6,30.6z"/>
	<path class="st0" d="M321.8,38.1c-0.6,0-1.9-0.1-2.9-1c-0.5-0.5-0.7-1-0.8-2.1h2.2c0.1,0.4,0.2,1.4,1.6,1.4c0.2,0,1.3,0,1.3-0.9
		c0-0.6-0.4-0.8-1.8-1.3c-1.8-0.7-3-1.1-3-2.7c0-1.5,1.4-2.7,3.4-2.7c0.7,0,1.8,0.1,2.6,0.9c0.5,0.5,0.7,1,0.8,2h-2.2
		c0-0.6-0.3-1.2-1.3-1.2c-0.9,0-1.2,0.5-1.2,0.8c0,0.4,0.4,0.6,1.1,0.9c2.2,0.8,2.3,0.9,2.8,1.2c0.6,0.4,1,1.1,1,1.9
		C325.4,37,323.7,38.1,321.8,38.1z"/>
	<path class="st0" d="M330.4,38.1c-0.6,0-1.9-0.1-2.9-1c-0.5-0.5-0.7-1-0.8-2.1h2.2c0.1,0.4,0.2,1.4,1.6,1.4c0.2,0,1.3,0,1.3-0.9
		c0-0.6-0.4-0.8-1.8-1.3c-1.8-0.7-3-1.1-3-2.7c0-1.5,1.4-2.7,3.4-2.7c0.7,0,1.8,0.1,2.6,0.9c0.5,0.5,0.7,1,0.8,2h-2.2
		c0-0.6-0.3-1.2-1.3-1.2c-0.9,0-1.2,0.5-1.2,0.8c0,0.4,0.4,0.6,1.1,0.9c2.2,0.8,2.3,0.9,2.8,1.2c0.6,0.4,1,1.1,1,1.9
		C334,37,332.4,38.1,330.4,38.1z"/>
	<path class="st0" d="M181.8,57.9c-1.6,0-2.2-1.1-2.4-1.5l0.1,0.6v0.6h-2.2v-12h2.2v3.5l-0.1,0.8c0.3-0.5,0.9-1.4,2.5-1.4
		c2.8,0,3.4,2.9,3.4,4.5C185.3,56,183.8,57.9,181.8,57.9z M181.2,50.5c-0.9,0-1.8,0.8-1.8,2.6c0,1.6,0.6,2.7,1.7,2.7
		c1.1,0,1.9-1,1.9-2.7C183.1,51.5,182.3,50.5,181.2,50.5z"/>
	<path class="st0" d="M191.7,57.5c-0.7,1.8-1.7,2.4-3.2,2.4c-0.5,0-0.7,0-1-0.1v-1.7c0.3,0.1,0.5,0.1,0.7,0.1c0.8,0,1.1-0.4,1.3-0.8
		l-3.2-8.6h2.3l1.8,5.3l0.3,1.2l0.3-1.2l1.8-5.3h2.3L191.7,57.5z"/>
	<path class="st0" d="M208.4,47.5v10.1h-2.2V47.5h-4.3v-1.9h10.8v1.9H208.4z"/>
	<path class="st0" d="M225.7,57.7h-2.2l-1.6-8.1l-0.2-1.7l-0.2,1.7l-1.6,8.1h-2.2l-3.7-12h2.4l2.1,8.1l0.3,1.5l0.2-1.5l1.6-8.1h2.4
		l1.6,8.1l0.2,1.5l0.2-1.5l2.1-8.1h2.4L225.7,57.7z"/>
	<path class="st0" d="M231.2,57.7v-12h2.2v12H231.2z"/>
	<path class="st0" d="M243.7,57.7L239,50l-0.9-2l0.2,2.7v7h-2.1v-12h2.4l4.7,7.7l0.9,2l-0.2-2.7v-7h2.1v12H243.7z"/>
	<path class="st0" d="M260.5,53.4h-3.3v4.3h-2.2v-12h5.5c2.6,0,4.1,1.8,4.1,3.8C264.6,51.9,262.7,53.4,260.5,53.4z M260.1,47.5h-3v4
		h3c1.2,0,2.1-0.7,2.1-2.1C262.2,48,261.3,47.5,260.1,47.5z"/>
	<path class="st0" d="M266.6,57.7v-12h2.2v10.1h6.7v1.9H266.6z"/>
	<path class="st0" d="M285.8,57.7l-0.9-2.6h-5.1l-0.9,2.6h-2.5l4.6-12h2.5l4.6,12H285.8z M282.7,48.6l-0.3-1.1l-0.3,1.1l-1.6,4.6
		h3.8L282.7,48.6z"/>
	<path class="st0" d="M297.9,57.7l-4.7-7.7l-0.9-2l0.2,2.7v7h-2.1v-12h2.4l4.7,7.7l0.9,2l-0.2-2.7v-7h2.1v12H297.9z"/>
	<path class="st0" d="M303.2,57.7v-12h9.1v1.9h-6.9v3h6.4v1.7h-6.4v3.6h7.1v1.9H303.2z"/>
	<path class="st0" d="M320.4,47.5v10.1h-2.2V47.5h-4.3v-1.9h10.8v1.9H320.4z"/>
</g>
</svg>
