<?xml version="1.0" encoding="utf-8"?>
<!-- Generator: Adobe Illustrator 25.4.1, SVG Export Plug-In . SVG Version: 6.00 Build 0)  -->
<svg version="1.1" id="レイヤー_1" xmlns="http://www.w3.org/2000/svg" xmlns:xlink="http://www.w3.org/1999/xlink" x="0px"
	 y="0px" viewBox="0 0 518 75" style="enable-background:new 0 0 518 75;" xml:space="preserve">
<style type="text/css">
	.st0{fill:#FFFFFF;}
	.st1{fill:#711584;}
</style>
<g>
	<g>
		<rect x="2.1" y="4.5" class="st0" width="513.9" height="68"/>
		<path class="st1" d="M515.9,74.6H2.1C1,74.6,0,73.7,0,72.5v-68c0-1.1,0.9-2.1,2.1-2.1H516c1.1,0,2.1,0.9,2.1,2.1v68
			C518,73.7,517.1,74.6,515.9,74.6z M4.1,70.5h509.7V6.6H4.1V70.5z"/>
	</g>
	<g>
		<rect x="2.1" y="2.5" class="st0" width="513.9" height="68"/>
		<path class="st1" d="M515.9,72.5H2.1C1,72.5,0,71.6,0,70.4v-68c0-1.1,0.9-2.1,2.1-2.1H516c1.1,0,2.1,0.9,2.1,2.1v68
			C518,71.6,517.1,72.5,515.9,72.5z M4.1,68.4h509.7V4.5H4.1V68.4z"/>
	</g>
	<g>
		<g>
			<path class="st1" d="M53.6,23h14.1c3.6,0,6,0.7,7.3,2.3c1.1,1.3,1.8,3.7,1.8,6.2c0,3-0.9,5.5-2.4,7c-1.4,1.3-3.5,1.9-7,1.9h-3.8
				c-3.5,0.2-4.5,1-4.3,3.7v2.3h17V52H52.6v-6.5c-0.1-8,3-11.1,11-11.1h3.6c2.5,0,2.9-0.5,2.9-2.9s-0.7-3-3.9-3H53.6V23z"/>
			<path class="st1" d="M99.5,22.8c2,0,3.9,0.7,5.2,2c1.6,1.6,2.1,2.9,2.2,5.9v13.8c0.1,4.7-3,7.7-7.9,7.5h-8.4
				c-5.1,0.2-7.8-2.4-7.8-7.5V30.6c-0.2-5.2,2.2-7.8,7.3-7.8H99.5z M92.7,28.4c-2.6,0.1-3.2,0.7-3.3,3.5v11c0.1,3.4,0.2,3.5,3.3,3.6
				h4.8c2.4,0,2.7-0.4,2.8-3.2V31.7c0-2.5-0.8-3.2-3.6-3.3C96.7,28.4,92.7,28.4,92.7,28.4z"/>
			<path class="st1" d="M114.1,23h14.1c3.6,0,6,0.7,7.3,2.3c1.1,1.3,1.8,3.7,1.8,6.2c0,3-0.9,5.5-2.4,7c-1.4,1.3-3.5,1.9-7,1.9h-3.8
				c-3.5,0.2-4.5,1-4.3,3.7v2.3h17V52h-23.6v-6.5c-0.1-8,3-11.1,11-11.1h3.6c2.5,0,2.9-0.5,2.9-2.9s-0.7-3-3.9-3h-12.7V23z"/>
			<path class="st1" d="M177.5,43.7V35c-1.3,0.8-1.9,1.1-4.4,1.9v-6.1c3.6-1.9,5.8-4.5,7.1-8.4h6.4c-0.3,1.3-0.4,1.4-0.9,2.7h18v5.1
				H195v3.4h7.3V39H195v4.8h9.1v5.5H195v5.3h-6.3v-5.3H173v-5.5L177.5,43.7L177.5,43.7z M188.8,33.5v-3.4h-6
				c-1.4,1.7-1.6,1.9-3.4,3.4H188.8z M188.8,39h-5.2v4.8h5.2V39z"/>
			<path class="st1" d="M210.6,40.2l11.9-0.2l-0.4-5.5l-9.3,0.1v-5.5l8.9-0.1l-0.4-5.8h6.1l0.5,5.8l11.3-0.2v5.5l-10.9,0.2l0.4,5.5
				l12.3-0.2v5.5l-12,0.2l0.6,8.5h-6.1l-0.6-8.4l-12.3,0.2V40.2z M235.3,22.4v5.4H232v-5.4H235.3z M236.5,22.4h3.3v5.4h-3.3V22.4z"
				/>
			<path class="st1" d="M248.8,32l6.1-0.1l-0.7-5.5h6l0.6,5.3l16.5-0.3c-0.4,12.3-2.5,15.1-11.9,15.8l-1.1-5.4c5.2-0.6,5.8-1,6.3-5
				l-9.3,0.2l2.3,17H258l-2.4-17l-6.7,0.2V32H248.8z"/>
			<path class="st1" d="M294.5,23.4v15.4c0.1,9-3.7,14.5-10.7,15.4v-6.7c3.4-1,4.5-2.9,4.7-8.1v-16H294.5z M298.4,23.4h6.1v23.3
				c4.9-0.2,5.5-1.1,5.6-8v-8.3h5.9v9.1c0,5.9-0.7,8.6-2.9,10.6c-2.3,2.1-4.8,2.9-9.5,2.9h-5.3L298.4,23.4L298.4,23.4z"/>
			<path class="st1" d="M331.1,38.3c-0.4,9.6-3,14-9.8,16.4v-6.4c2.9-1.7,4-4.2,4.2-10C325.5,38.3,331.1,38.3,331.1,38.3z M322,22.7
				c3.6,0.6,5.3,1,9,1.9v5.8c-3.4-1-5.1-1.4-9-2.2V22.7z M322,30.1c4.6,0.8,6,1.1,9,1.9v5.3c-3.4-0.8-5.1-1.2-9-1.9V30.1z
				 M338.4,37.8v6.1c0.1,7.1-1.8,9.6-8.1,11v-5.7c2.5-0.7,3.1-1.7,3-4.8v-6.6H338.4z M339.9,24.1v-1.9h5.5v1.9h7.8v4.7h-11.6
				l-1.3,2.9c2.6-0.1,3-0.1,5.3-0.3l-0.9-1.7h5.6c1.5,2.8,2.2,4.1,3.3,7h-5.9l-0.4-1.1c-3.2,0.5-6.1,0.6-12.1,0.8h-2.8v-4.6h2.2
				l1.1-3.1h-3.5V24h7.7V24.1z M339.6,37.8h4.9v14.7h-4.9V37.8z M351,37.8v11.1h1.1c0.8,0,1-0.1,1.9-1.3v4.9
				c-0.7,1.4-1.4,1.8-3.4,1.7h-2.1c-2.3-0.1-2.7-0.7-2.7-3.8V37.8H351z"/>
			<path class="st1" d="M358.3,38.1c4.2-2.2,6.5-4.5,8.8-8.9h5.7c-1.1,3.2-2.3,5.3-5.2,8.8v16.3h-6V42.6c-1.4,0.9-2,1.3-3.4,1.9
				v-6.4H358.3z M371.1,22.2c-1.7,5.4-7,10.8-12.8,12.8v-6.2c3.1-1.4,5.5-3.8,6.8-6.6C365.1,22.2,371.1,22.2,371.1,22.2z
				 M371.7,32.5h18.9v5.3h-4.8v10.8c0.1,3.9-1.5,5.5-5.5,5.6h-6v-5.4h5.5v-11h-8.1V32.5z M373.3,23.1h15.9v5.2h-15.9V23.1z"/>
			<path class="st1" d="M407.5,28.3v4.1H395v-4.1C395,28.3,407.5,28.3,407.5,28.3z M406.9,43.4v6.8c-0.1,3.4-0.7,4.1-3.7,4.2H396
				v-11H406.9z M406.4,23.5v4h-10.2v-4H406.4z M406.5,33.5v4h-10.3v-4H406.5z M406.5,38.6v4h-10.3v-4H406.5z M402.5,49.9v-2.2h-2
				v2.2H402.5z M411.9,36.1l0.6-2.4H409V29h4.9l0.5-1.6h-5.8V23H427v4.5h-7.3l-0.5,1.6h6.3l-0.2,7.1h2.8v4.6h-20.5v-4.6h4.3V36.1z
				 M425.9,41.7v7.5c0.1,3.9-1,4.9-4.9,4.9h-12.2V41.7H425.9z M420.2,49.6V46h-5.8v3.7h5.8V49.6z M420.1,36.1l0.1-2.4H418l-0.7,2.4
				H420.1z"/>
			<path class="st1" d="M433.1,35.2V30h12.3v-7.7h6.5v7.6H464v5.3h-11.7c1.5,6.5,5.7,10.6,12.2,12.2V54c-7.6-1.4-12.9-5.2-16-11.5
				c-3.9,7-8.6,10.4-16,11.5v-6.2c6.2-1.5,11.2-6.6,12.3-12.6C444.8,35.2,433.1,35.2,433.1,35.2z"/>
			<path class="st1" d="M473.5,25.6l-1.6-2.4h6.6l1.5,2.4h2.6v-3.1h6.2v3.1h2.5l1.8-2.4h6.4l-1.5,2.4h3.7V32h-3.5v4.1h-24.9V32h-3.4
				v-6.4H473.5z M499.6,37v10.7c-0.1,2.7-0.8,3.5-3.5,4c1.3,1.5,1.9,2.1,3.2,3.1h-7.7c-1.2-1.2-1.7-1.8-2.8-3.2h-6.3
				c-0.8,1.2-1.2,1.7-2.9,3.2h-7.4c1.9-1.5,2.6-2.1,3.7-3.2h-3.8V37H499.6z M495.6,30v-1h-19.9v1H495.6z M493.8,40.9v-1.2h-15.9v1.2
				H493.8z M493.8,44.6v-1.2h-15.9v1.2H493.8z M493.8,48.4v-1.2h-15.9v1.2H493.8z M492,33.5v-1h-12.7v1H492z"/>
		</g>
	</g>
	<path class="st1" d="M39.5,59.6c-0.4,0-0.8-0.1-1.1-0.4L18.6,40.1c-0.3-0.3-0.5-0.7-0.5-1.1c0-0.4,0.2-0.8,0.5-1.1l19.9-19.2
		c0.6-0.6,1.6-0.6,2.2,0c0.6,0.6,0.6,1.6,0,2.2L21.8,39l18.8,18c0.6,0.6,0.6,1.6,0,2.2C40.3,59.5,39.9,59.6,39.5,59.6z"/>
</g>
<path class="st1" d="M152.8,29.4h-0.4l-7.1,4.9v-6.2l7.5-5.2h7.2V52h-7.2V29.4z"/>
</svg>
