<?xml version="1.0" encoding="utf-8"?>
<!-- Generator: Adobe Illustrator 25.4.1, SVG Export Plug-In . SVG Version: 6.00 Build 0)  -->
<svg version="1.1" id="レイヤー_1" xmlns="http://www.w3.org/2000/svg" xmlns:xlink="http://www.w3.org/1999/xlink" x="0px"
	 y="0px" viewBox="0 0 518 75" style="enable-background:new 0 0 518 75;" xml:space="preserve">
<style type="text/css">
	.st0{fill:#FFFFFF;}
	.st1{fill:#711585;}
</style>
<g>
	<rect x="2.1" y="4.5" class="st0" width="513.9" height="68"/>
	<path class="st1" d="M515.9,74.6H2.1c-1.1,0-2.1-0.9-2.1-2.1v-68c0-1.1,0.9-2.1,2.1-2.1h513.9c1.1,0,2.1,0.9,2.1,2.1v68
		C518,73.7,517.1,74.6,515.9,74.6z M4.1,70.5h509.7V6.6H4.1V70.5z"/>
</g>
<g>
	<rect x="2.1" y="2.5" class="st0" width="513.9" height="68"/>
	<path class="st1" d="M515.9,72.5H2.1c-1.1,0-2.1-0.9-2.1-2.1v-68c0-1.1,0.9-2.1,2.1-2.1h513.9c1.1,0,2.1,0.9,2.1,2.1v68
		C518,71.6,517.1,72.5,515.9,72.5z M4.1,68.4h509.7V4.5H4.1V68.4z"/>
</g>
<g>
	<g>
		<path class="st1" d="M34.7,38.7v-5.2h9.6v10.4c-0.1,3.9,1.3,5.3,5.1,5.3h20.3V55H49.7c-4.5-0.2-6.4-1.1-8.3-4
			c-1.9,2.7-3.4,3.7-7,4.4v-6.5c2.7-1,3.7-2.2,3.7-5.1v-5.2H34.7z M45.1,30.4c-2.9-1.1-5.4-1.8-9.8-2.7v-6.1c4,0.8,6.2,1.4,9.8,2.6
			V30.4z M48.3,31.5V20.9h18.2v10.6h2.1v11.3c0,3.9-1.1,4.9-5.3,4.9h-3.1V45h-6.8v-8.2h8.3v5.9H63v-6.9H52v12h-5.7V31.5H48.3z
			 M54.9,31.5v-5.3h5.8v-1.1h-7.1v6.4H54.9z M58.5,39.9h-1.9v1.9h1.9V39.9z M60.7,31.5v-2.1h-1.4v2.1H60.7z"/>
		<path class="st1" d="M88.7,34.9V30H77v-5.7h11.7v-3.5h7v3.5h11.5V30H95.8v4.9h13.3v5.9H90.7l-3.2,8.3c6.4-0.8,8.2-1.1,12-1.9
			c-0.8-2-0.9-2.3-1.8-4.3h6.7c1.7,3.1,2.9,6,5.2,12.2h-7.1c-0.4-1.3-0.5-1.5-1-2.8c-7.1,1.9-15.4,3-25.3,3.3v-5.9l4-0.2l3.4-8.6
			h-8.5v-5.9H88.7z"/>
		<path class="st1" d="M133.2,48.7c3.7-0.1,5.3-0.7,6.7-2.4c1.4-1.6,2.2-4.8,2.2-8.2c0-3-0.6-5.5-1.8-7.2c-0.8-1.2-1.8-1.7-3.8-2
			c-1.5,9.5-2,12.1-3.2,16.2c-1,3.5-2,5.4-3.4,6.7c-1.3,1.1-2.9,1.8-4.3,1.8c-2.5,0-5.3-1.6-7.1-3.8c-1.8-2.4-2.9-6.2-2.9-10.3
			c0-3.7,0.9-7.3,2.6-10c2.9-4.8,7.9-7.2,14.9-7.2c10.4,0,15.7,5.4,15.7,15.9c0,6-1.9,11.1-5.3,13.8c-2.5,2-5.5,2.9-9.9,2.9h-0.3
			V48.7z M124.7,30.9c-1.8,1.9-2.8,5.1-2.8,8.6c0,3.8,1.2,6.4,3,6.4c0.9,0,1.6-0.7,2.1-2.1c0.8-2.5,2.2-9.5,3-15.4
			C127.3,28.9,126,29.5,124.7,30.9z"/>
		<path class="st1" d="M155.6,40l12.8-0.2l-0.4-5.9L158,34v-6l9.6-0.2l-0.5-6.3h6.6l0.5,6.2l12.2-0.2v5.9l-11.7,0.2l0.4,5.9
			l13.3-0.2v6l-12.9,0.2l0.6,9.2h-6.6l-0.6-9.1l-13.2,0.2V40z M182.3,20.9v5.9h-3.6v-5.9H182.3z M183.5,20.9h3.6v5.9h-3.6V20.9z"/>
		<path class="st1" d="M196.9,31.1l6.6-0.2l-0.7-5.9h6.5l0.7,5.8l17.8-0.3c-0.4,13.2-2.7,16.3-12.8,17l-1.1-5.8
			c5.6-0.6,6.2-1.1,6.8-5.4l-10,0.3l2.5,18.3h-6.3l-2.6-18.3l-7.2,0.2V31.1z"/>
		<path class="st1" d="M246.1,22v16.6c0.2,9.7-4,15.6-11.6,16.6v-7.2c3.7-1.1,4.9-3.2,5.1-8.7V22H246.1z M250.3,22h6.6v25.1
			c5.3-0.3,6-1.2,6.1-8.6v-8.9h6.4v9.8c0,6.4-0.8,9.3-3.1,11.5c-2.4,2.2-5.2,3.1-10.2,3.1h-5.8V22z"/>
		<path class="st1" d="M285.5,38c-0.5,10.4-3.3,15.1-10.5,17.7v-6.9c3.2-1.8,4.3-4.5,4.5-10.8H285.5z M275.8,21.1
			c3.9,0.7,5.8,1.1,9.8,2.1v6.3c-3.6-1.1-5.5-1.5-9.8-2.4V21.1z M275.8,29.2c4.9,0.9,6.5,1.2,9.8,2.1v5.7c-3.7-0.9-5.5-1.3-9.8-2
			V29.2z M293.5,37.4v6.6c0.1,7.6-1.9,10.4-8.7,11.9v-6.1c2.7-0.8,3.3-1.8,3.3-5.1v-7.1H293.5z M295,22.7v-2.1h5.9v2.1h8.5v5.1
			h-12.5l-1.4,3.2c2.8-0.1,3.2-0.1,5.7-0.3l-1-1.8h6c1.6,3,2.3,4.5,3.5,7.6h-6.4l-0.4-1.2c-3.5,0.5-6.6,0.7-13,0.9h-3v-5h2.4
			l1.1-3.3h-3.8v-5.1H295z M294.8,37.4h5.3v15.8h-5.3V37.4z M307,37.4v11.9h1.1c0.9,0,1.1-0.1,2-1.4v5.3c-0.8,1.5-1.6,1.9-3.6,1.8
			h-2.3c-2.4-0.1-2.9-0.8-2.9-4.1V37.4H307z"/>
		<path class="st1" d="M314.9,37.8c4.6-2.4,7-4.9,9.5-9.6h6.2c-1.2,3.4-2.5,5.8-5.6,9.5v17.6h-6.4V42.6c-1.5,1-2.2,1.4-3.7,2.1V37.8
			z M328.7,20.7c-1.8,5.9-7.5,11.6-13.8,13.8v-6.7c3.4-1.6,6-4.1,7.3-7.1H328.7z M329.4,31.7h20.4v5.7h-5.1V49
			c0.1,4.2-1.6,5.9-5.9,6.1h-6.5v-5.8h5.9V37.4h-8.7V31.7z M331,21.6h17.1v5.6H331V21.6z"/>
		<path class="st1" d="M368,27.2v4.5h-13.5v-4.5H368z M367.3,43.5v7.3c-0.1,3.6-0.8,4.5-4,4.5h-7.8V43.5H367.3z M366.8,22v4.3h-11.1
			V22H366.8z M366.9,32.8v4.3h-11.1v-4.3H366.9z M366.9,38.3v4.3h-11.1v-4.3H366.9z M362.5,50.5v-2.4h-2.2v2.4H362.5z M372.7,35.6
			l0.7-2.6h-3.8V28h5.3l0.5-1.7H369v-4.9H389v4.9h-7.9l-0.5,1.7h6.8l-0.2,7.6h3v5H368v-5H372.7z M387.8,41.6v8.1
			c0.1,4.2-1,5.3-5.3,5.3h-13.2V41.6H387.8z M381.6,50.2v-4h-6.3v4H381.6z M381.5,35.6l0.2-2.6h-2.4l-0.7,2.6H381.5z"/>
		<path class="st1" d="M395.5,34.6V29h13.2v-8.3h7v8.2h13.2v5.7h-12.6c1.6,7,6.1,11.5,13.1,13.1v7.1c-8.2-1.5-13.9-5.6-17.3-12.3
			c-4.2,7.6-9.2,11.2-17.3,12.4v-6.7c6.7-1.6,12-7.1,13.3-13.6H395.5z"/>
		<path class="st1" d="M439.1,24.3l-1.7-2.6h7.1l1.6,2.6h2.8V21h6.7v3.3h2.7l1.9-2.6h6.9l-1.6,2.6h4v6.9h-3.7v4.4h-26.8v-4.4h-3.7
			v-6.9H439.1z M467.2,36.6v11.6c-0.1,2.9-0.9,3.8-3.7,4.3c1.4,1.6,2,2.2,3.5,3.4h-8.3c-1.3-1.3-1.9-1.9-3-3.5h-6.7
			c-0.9,1.3-1.3,1.8-3.1,3.5h-8c2.1-1.6,2.8-2.2,4-3.5h-4.1V36.6H467.2z M463,29V28h-21.5V29H463z M461,40.8v-1.3h-17.2v1.3H461z
			 M461,44.8v-1.3h-17.2v1.3H461z M461,48.9v-1.3h-17.2v1.3H461z M459.1,32.9v-1h-13.7v1H459.1z"/>
	</g>
</g>
<path class="st1" d="M483.2,59.6c-0.4,0-0.8-0.2-1.1-0.5c-0.6-0.6-0.6-1.6,0-2.2l18.8-18l-18.8-18c-0.6-0.6-0.6-1.6,0-2.2
	c0.6-0.6,1.6-0.6,2.2,0l19.9,19.2c0.3,0.3,0.5,0.7,0.5,1.1c0,0.4-0.2,0.8-0.5,1.1l-19.9,19.2C484,59.5,483.6,59.6,483.2,59.6z"/>
</svg>
